<svg xmlns="http://www.w3.org/2000/svg" viewBox="0 0 720 360"
     role="img" aria-label="Waveform comparison: quiet recording above, same recording normalized below. Same shape, different scale. Both panels show the -1 dB ceiling for reference; quiet sits well below it, normalized touches it.">
  <rect width="720" height="360" fill="var(--bg-alt)"/>

  <!-- Panel labels -->
  <text x="68" y="92.5" text-anchor="end"
        font-family="DM Mono, monospace" font-size="11" fill="var(--ink)">quiet</text>
  <text x="68" y="261.5" text-anchor="end"
        font-family="DM Mono, monospace" font-size="11" fill="var(--ink)">normalized</text>

  <!-- Ceiling lines at -1 dBFS. Only draw the upper one in each panel; the
       lower one is symmetric and redundant; cleaner visual. -->
  <line x1="80" y1="25.67" x2="696" y2="25.67"
        stroke="var(--accent)" stroke-width="0.8" stroke-dasharray="4,4" opacity="0.7"/>

  <line x1="80" y1="194.67" x2="696" y2="194.67"
        stroke="var(--accent)" stroke-width="0.8" stroke-dasharray="4,4" opacity="0.7"/>

  <!-- Center reference lines -->
  <line x1="80" y1="88.50" x2="696" y2="88.50"
        stroke="var(--ink-soft)" stroke-width="0.4" opacity="0.4"/>
  <line x1="80" y1="257.50" x2="696" y2="257.50"
        stroke="var(--ink-soft)" stroke-width="0.4" opacity="0.4"/>

  <!-- Waveform fills -->
  <path d="M 80.00 85.68 L 81.00 87.08 L 82.00 87.17 L 83.00 88.19 L 84.00 88.24 L 85.00 88.32 L 86.00 88.33 L 87.00 88.42 L 88.00 88.39 L 89.00 88.44 L 90.00 88.43 L 91.00 88.45 L 92.00 88.42 L 93.00 88.45 L 94.00 88.45 L 95.00 88.47 L 96.00 88.45 L 97.00 88.47 L 98.00 88.46 L 99.00 88.47 L 100.00 88.48 L 101.00 88.47 L 102.00 88.47 L 103.00 88.47 L 104.00 88.48 L 105.00 88.46 L 106.00 87.97 L 107.00 87.51 L 108.00 87.54 L 109.00 88.41 L 110.00 88.44 L 111.00 88.44 L 112.00 88.41 L 113.00 88.44 L 114.00 88.45 L 115.00 88.47 L 116.00 88.46 L 117.00 88.47 L 118.00 88.45 L 119.00 88.49 L 120.00 88.49 L 121.00 88.48 L 122.00 88.47 L 123.00 88.49 L 124.00 88.49 L 125.00 88.49 L 126.00 88.49 L 127.00 88.49 L 128.00 88.50 L 129.00 88.49 L 130.00 88.50 L 131.00 88.33 L 132.00 80.33 L 133.00 83.26 L 134.00 83.84 L 135.00 83.83 L 136.00 84.20 L 137.00 84.80 L 138.00 85.37 L 139.00 85.47 L 140.00 85.96 L 141.00 85.85 L 142.00 86.23 L 143.00 87.10 L 144.00 86.81 L 145.00 87.08 L 146.00 87.56 L 147.00 87.63 L 148.00 87.47 L 149.00 87.46 L 150.00 87.89 L 151.00 87.54 L 152.00 87.75 L 153.00 88.17 L 154.00 87.96 L 155.00 87.99 L 156.00 88.15 L 157.00 85.23 L 158.00 86.62 L 159.00 86.64 L 160.00 87.57 L 161.00 87.93 L 162.00 88.16 L 163.00 88.11 L 164.00 88.10 L 165.00 88.25 L 166.00 88.09 L 167.00 88.23 L 168.00 88.21 L 169.00 88.31 L 170.00 88.32 L 171.00 88.29 L 172.00 88.32 L 173.00 88.30 L 174.00 88.38 L 175.00 88.39 L 176.00 88.37 L 177.00 88.40 L 178.00 88.40 L 179.00 88.39 L 180.00 88.40 L 181.00 88.41 L 182.00 85.02 L 183.00 85.80 L 184.00 87.30 L 185.00 87.08 L 186.00 88.07 L 187.00 88.25 L 188.00 88.33 L 189.00 88.31 L 190.00 88.34 L 191.00 88.38 L 192.00 88.40 L 193.00 88.42 L 194.00 88.42 L 195.00 88.42 L 196.00 88.44 L 197.00 88.43 L 198.00 88.43 L 199.00 88.44 L 200.00 88.44 L 201.00 88.44 L 202.00 88.44 L 203.00 88.44 L 204.00 88.46 L 205.00 88.48 L 206.00 88.46 L 207.00 88.48 L 208.00 88.40 L 209.00 87.89 L 210.00 87.38 L 211.00 87.84 L 212.00 88.41 L 213.00 88.43 L 214.00 88.44 L 215.00 88.40 L 216.00 88.45 L 217.00 88.43 L 218.00 88.45 L 219.00 88.46 L 220.00 88.48 L 221.00 88.45 L 222.00 88.48 L 223.00 88.48 L 224.00 88.47 L 225.00 88.47 L 226.00 88.49 L 227.00 88.49 L 228.00 88.48 L 229.00 88.49 L 230.00 88.49 L 231.00 88.49 L 232.00 88.49 L 233.00 88.49 L 234.00 80.43 L 235.00 82.32 L 236.00 83.69 L 237.00 83.72 L 238.00 84.97 L 239.00 86.61 L 240.00 86.70 L 241.00 86.71 L 242.00 87.42 L 243.00 87.57 L 244.00 87.54 L 245.00 88.05 L 246.00 88.18 L 247.00 87.99 L 248.00 88.18 L 249.00 88.23 L 250.00 88.27 L 251.00 88.30 L 252.00 88.28 L 253.00 88.22 L 254.00 88.35 L 255.00 88.38 L 256.00 88.34 L 257.00 88.35 L 258.00 88.24 L 259.00 88.25 L 260.00 87.98 L 261.00 87.48 L 262.00 87.40 L 263.00 88.24 L 264.00 88.25 L 265.00 88.33 L 266.00 88.36 L 267.00 88.39 L 268.00 88.39 L 269.00 88.41 L 270.00 88.40 L 271.00 88.42 L 272.00 88.43 L 273.00 88.45 L 274.00 88.46 L 275.00 88.46 L 276.00 88.47 L 277.00 88.46 L 278.00 88.45 L 279.00 88.44 L 280.00 88.44 L 281.00 88.45 L 282.00 88.43 L 283.00 88.45 L 284.00 88.46 L 285.00 85.69 L 286.00 82.97 L 287.00 83.11 L 288.00 85.66 L 289.00 84.73 L 290.00 84.68 L 291.00 87.52 L 292.00 85.85 L 293.00 85.45 L 294.00 87.64 L 295.00 86.49 L 296.00 86.72 L 297.00 87.34 L 298.00 87.22 L 299.00 87.45 L 300.00 87.43 L 301.00 88.00 L 302.00 87.53 L 303.00 87.79 L 304.00 87.98 L 305.00 87.89 L 306.00 87.88 L 307.00 88.08 L 308.00 88.01 L 309.00 88.02 L 310.00 88.13 L 311.00 85.75 L 312.00 86.54 L 313.00 86.61 L 314.00 87.85 L 315.00 87.82 L 316.00 88.13 L 317.00 88.20 L 318.00 88.21 L 319.00 88.15 L 320.00 88.29 L 321.00 88.21 L 322.00 88.17 L 323.00 88.39 L 324.00 88.28 L 325.00 88.34 L 326.00 88.39 L 327.00 88.38 L 328.00 88.38 L 329.00 88.38 L 330.00 88.40 L 331.00 88.39 L 332.00 88.37 L 333.00 88.37 L 334.00 88.40 L 335.00 88.39 L 336.00 84.89 L 337.00 85.78 L 338.00 87.23 L 339.00 87.01 L 340.00 88.03 L 341.00 88.30 L 342.00 88.34 L 343.00 88.34 L 344.00 88.38 L 345.00 88.42 L 346.00 88.42 L 347.00 88.42 L 348.00 88.37 L 349.00 88.43 L 350.00 88.43 L 351.00 88.45 L 352.00 88.45 L 353.00 88.44 L 354.00 88.44 L 355.00 88.46 L 356.00 88.45 L 357.00 88.47 L 358.00 88.47 L 359.00 88.47 L 360.00 88.48 L 361.00 88.46 L 362.00 88.42 L 363.00 87.87 L 364.00 87.35 L 365.00 87.84 L 366.00 88.41 L 367.00 88.43 L 368.00 88.44 L 369.00 88.40 L 370.00 88.45 L 371.00 88.44 L 372.00 88.46 L 373.00 88.46 L 374.00 88.48 L 375.00 88.45 L 376.00 88.49 L 377.00 88.49 L 378.00 88.48 L 379.00 88.48 L 380.00 88.49 L 381.00 88.49 L 382.00 88.48 L 383.00 88.49 L 384.00 88.49 L 385.00 88.49 L 386.00 88.49 L 387.00 88.49 L 388.00 85.49 L 389.00 87.00 L 390.00 87.10 L 391.00 88.23 L 392.00 88.18 L 393.00 88.32 L 394.00 88.36 L 395.00 88.43 L 396.00 88.37 L 397.00 88.41 L 398.00 88.41 L 399.00 88.41 L 400.00 88.43 L 401.00 88.46 L 402.00 88.45 L 403.00 88.47 L 404.00 88.44 L 405.00 88.47 L 406.00 88.47 L 407.00 88.47 L 408.00 88.47 L 409.00 88.46 L 410.00 88.48 L 411.00 88.48 L 412.00 88.48 L 413.00 88.46 L 414.00 87.91 L 415.00 87.39 L 416.00 87.44 L 417.00 88.40 L 418.00 88.43 L 419.00 88.44 L 420.00 88.41 L 421.00 88.45 L 422.00 88.44 L 423.00 88.46 L 424.00 88.46 L 425.00 88.48 L 426.00 88.45 L 427.00 88.48 L 428.00 88.48 L 429.00 88.48 L 430.00 88.47 L 431.00 88.49 L 432.00 88.49 L 433.00 88.49 L 434.00 88.49 L 435.00 88.49 L 436.00 88.49 L 437.00 88.49 L 438.00 88.50 L 439.00 85.02 L 440.00 80.06 L 441.00 81.11 L 442.00 83.43 L 443.00 84.22 L 444.00 84.96 L 445.00 86.31 L 446.00 86.70 L 447.00 86.66 L 448.00 86.99 L 449.00 87.47 L 450.00 87.91 L 451.00 87.95 L 452.00 88.16 L 453.00 87.99 L 454.00 88.05 L 455.00 87.97 L 456.00 88.04 L 457.00 88.18 L 458.00 88.19 L 459.00 88.22 L 460.00 88.29 L 461.00 88.23 L 462.00 88.24 L 463.00 88.36 L 464.00 88.39 L 465.00 88.20 L 466.00 87.81 L 467.00 87.32 L 468.00 88.21 L 469.00 88.26 L 470.00 88.34 L 471.00 88.33 L 472.00 88.38 L 473.00 88.38 L 474.00 88.39 L 475.00 88.39 L 476.00 88.37 L 477.00 88.44 L 478.00 88.45 L 479.00 88.45 L 480.00 88.42 L 481.00 88.45 L 482.00 88.43 L 483.00 88.44 L 484.00 88.43 L 485.00 88.45 L 486.00 88.45 L 487.00 88.44 L 488.00 88.45 L 489.00 88.46 L 490.00 88.46 L 491.00 82.84 L 492.00 82.93 L 493.00 83.16 L 494.00 84.78 L 495.00 87.10 L 496.00 84.50 L 497.00 85.73 L 498.00 87.87 L 499.00 85.33 L 500.00 86.27 L 501.00 87.50 L 502.00 86.80 L 503.00 87.18 L 504.00 87.39 L 505.00 87.55 L 506.00 87.41 L 507.00 87.56 L 508.00 87.71 L 509.00 87.69 L 510.00 87.75 L 511.00 87.82 L 512.00 87.83 L 513.00 87.95 L 514.00 87.95 L 515.00 88.08 L 516.00 85.67 L 517.00 86.65 L 518.00 86.69 L 519.00 87.40 L 520.00 87.85 L 521.00 88.00 L 522.00 88.10 L 523.00 88.15 L 524.00 88.11 L 525.00 88.17 L 526.00 88.19 L 527.00 88.12 L 528.00 88.23 L 529.00 88.19 L 530.00 88.26 L 531.00 88.36 L 532.00 88.30 L 533.00 88.27 L 534.00 88.42 L 535.00 88.38 L 536.00 88.38 L 537.00 88.42 L 538.00 88.38 L 539.00 88.41 L 540.00 88.40 L 541.00 88.43 L 542.00 83.36 L 543.00 80.30 L 544.00 83.37 L 545.00 85.33 L 546.00 83.85 L 547.00 84.37 L 548.00 86.54 L 549.00 85.51 L 550.00 85.62 L 551.00 86.27 L 552.00 85.90 L 553.00 86.34 L 554.00 87.18 L 555.00 86.83 L 556.00 87.32 L 557.00 87.54 L 558.00 87.59 L 559.00 87.47 L 560.00 87.70 L 561.00 87.97 L 562.00 87.74 L 563.00 87.82 L 564.00 87.98 L 565.00 87.89 L 566.00 87.94 L 567.00 88.01 L 568.00 87.91 L 569.00 87.44 L 570.00 87.73 L 571.00 88.09 L 572.00 88.06 L 573.00 88.14 L 574.00 88.27 L 575.00 88.17 L 576.00 88.22 L 577.00 88.25 L 578.00 88.32 L 579.00 88.25 L 580.00 88.30 L 581.00 88.40 L 582.00 88.31 L 583.00 88.34 L 584.00 88.42 L 585.00 88.37 L 586.00 88.37 L 587.00 88.41 L 588.00 88.37 L 589.00 88.38 L 590.00 88.47 L 591.00 88.41 L 592.00 88.43 L 593.00 84.95 L 594.00 86.90 L 595.00 87.04 L 596.00 87.57 L 597.00 88.11 L 598.00 88.32 L 599.00 88.30 L 600.00 88.37 L 601.00 88.37 L 602.00 88.42 L 603.00 88.39 L 604.00 88.43 L 605.00 88.43 L 606.00 88.45 L 607.00 88.43 L 608.00 88.42 L 609.00 88.44 L 610.00 88.44 L 611.00 88.43 L 612.00 88.46 L 613.00 88.44 L 614.00 88.46 L 615.00 88.46 L 616.00 88.47 L 617.00 88.46 L 618.00 88.46 L 619.00 88.24 L 620.00 87.70 L 621.00 87.36 L 622.00 88.24 L 623.00 88.41 L 624.00 88.43 L 625.00 88.41 L 626.00 88.43 L 627.00 88.46 L 628.00 88.44 L 629.00 88.46 L 630.00 88.47 L 631.00 88.45 L 632.00 88.47 L 633.00 88.49 L 634.00 88.48 L 635.00 88.47 L 636.00 88.49 L 637.00 88.49 L 638.00 88.49 L 639.00 88.49 L 640.00 88.49 L 641.00 88.49 L 642.00 88.49 L 643.00 88.49 L 644.00 88.47 L 645.00 83.15 L 646.00 83.00 L 647.00 83.10 L 648.00 84.84 L 649.00 87.37 L 650.00 84.66 L 651.00 85.75 L 652.00 87.88 L 653.00 85.50 L 654.00 86.50 L 655.00 87.72 L 656.00 86.73 L 657.00 87.37 L 658.00 87.51 L 659.00 87.66 L 660.00 87.48 L 661.00 87.62 L 662.00 87.93 L 663.00 87.78 L 664.00 87.96 L 665.00 88.03 L 666.00 87.93 L 667.00 88.06 L 668.00 88.06 L 669.00 88.15 L 670.00 85.08 L 671.00 87.05 L 672.00 87.18 L 673.00 87.30 L 674.00 88.02 L 675.00 88.09 L 676.00 88.21 L 677.00 88.16 L 678.00 88.14 L 679.00 88.25 L 680.00 88.20 L 681.00 88.25 L 682.00 88.37 L 683.00 88.28 L 684.00 88.34 L 685.00 88.34 L 686.00 88.31 L 687.00 88.32 L 688.00 88.37 L 689.00 88.41 L 690.00 88.39 L 691.00 88.38 L 692.00 88.43 L 693.00 88.40 L 694.00 88.42 L 695.00 88.46 L 695.00 88.60 L 694.00 88.60 L 693.00 88.56 L 692.00 88.59 L 691.00 88.61 L 690.00 88.59 L 689.00 88.65 L 688.00 88.65 L 687.00 88.62 L 686.00 88.63 L 685.00 88.66 L 684.00 88.70 L 683.00 88.65 L 682.00 88.70 L 681.00 88.76 L 680.00 88.66 L 679.00 88.79 L 678.00 88.84 L 677.00 88.66 L 676.00 88.86 L 675.00 88.92 L 674.00 89.03 L 673.00 89.26 L 672.00 90.06 L 671.00 90.26 L 670.00 92.02 L 669.00 88.90 L 668.00 88.96 L 667.00 88.94 L 666.00 89.02 L 665.00 89.05 L 664.00 88.99 L 663.00 89.16 L 662.00 89.27 L 661.00 88.92 L 660.00 89.44 L 659.00 89.60 L 658.00 89.38 L 657.00 89.66 L 656.00 89.91 L 655.00 90.41 L 654.00 89.49 L 653.00 91.05 L 652.00 91.19 L 651.00 90.84 L 650.00 91.42 L 649.00 91.69 L 648.00 92.83 L 647.00 93.11 L 646.00 92.48 L 645.00 95.82 L 644.00 89.99 L 643.00 88.51 L 642.00 88.51 L 641.00 88.51 L 640.00 88.51 L 639.00 88.51 L 638.00 88.51 L 637.00 88.51 L 636.00 88.52 L 635.00 88.53 L 634.00 88.51 L 633.00 88.52 L 632.00 88.53 L 631.00 88.54 L 630.00 88.53 L 629.00 88.53 L 628.00 88.55 L 627.00 88.56 L 626.00 88.58 L 625.00 88.58 L 624.00 88.56 L 623.00 88.61 L 622.00 88.68 L 621.00 89.73 L 620.00 89.30 L 619.00 88.69 L 618.00 88.54 L 617.00 88.54 L 616.00 88.54 L 615.00 88.54 L 614.00 88.54 L 613.00 88.55 L 612.00 88.54 L 611.00 88.55 L 610.00 88.56 L 609.00 88.56 L 608.00 88.55 L 607.00 88.58 L 606.00 88.56 L 605.00 88.60 L 604.00 88.57 L 603.00 88.60 L 602.00 88.60 L 601.00 88.61 L 600.00 88.64 L 599.00 88.70 L 598.00 88.69 L 597.00 88.76 L 596.00 89.27 L 595.00 90.03 L 594.00 90.50 L 593.00 93.11 L 592.00 88.56 L 591.00 88.58 L 590.00 88.60 L 589.00 88.62 L 588.00 88.63 L 587.00 88.64 L 586.00 88.60 L 585.00 88.63 L 584.00 88.64 L 583.00 88.69 L 582.00 88.60 L 581.00 88.68 L 580.00 88.78 L 579.00 88.65 L 578.00 88.79 L 577.00 88.72 L 576.00 88.82 L 575.00 88.75 L 574.00 88.85 L 573.00 88.95 L 572.00 88.69 L 571.00 88.96 L 570.00 90.12 L 569.00 89.45 L 568.00 89.19 L 567.00 88.97 L 566.00 88.82 L 565.00 89.10 L 564.00 89.17 L 563.00 88.97 L 562.00 89.16 L 561.00 89.32 L 560.00 89.01 L 559.00 89.33 L 558.00 89.47 L 557.00 89.56 L 556.00 89.27 L 555.00 89.93 L 554.00 90.41 L 553.00 89.43 L 552.00 90.86 L 551.00 91.60 L 550.00 90.36 L 549.00 91.54 L 548.00 91.91 L 547.00 91.12 L 546.00 92.79 L 545.00 92.37 L 544.00 93.49 L 543.00 93.21 L 542.00 92.90 L 541.00 88.60 L 540.00 88.60 L 539.00 88.59 L 538.00 88.59 L 537.00 88.64 L 536.00 88.61 L 535.00 88.60 L 534.00 88.69 L 533.00 88.69 L 532.00 88.63 L 531.00 88.74 L 530.00 88.74 L 529.00 88.65 L 528.00 88.81 L 527.00 88.90 L 526.00 88.70 L 525.00 88.81 L 524.00 88.94 L 523.00 88.92 L 522.00 88.74 L 521.00 89.05 L 520.00 89.00 L 519.00 89.21 L 518.00 90.16 L 517.00 90.63 L 516.00 91.69 L 515.00 88.94 L 514.00 88.99 L 513.00 88.86 L 512.00 89.14 L 511.00 89.14 L 510.00 89.06 L 509.00 89.27 L 508.00 89.36 L 507.00 89.16 L 506.00 89.58 L 505.00 89.74 L 504.00 89.54 L 503.00 89.77 L 502.00 89.97 L 501.00 90.43 L 500.00 89.44 L 499.00 91.04 L 498.00 91.26 L 497.00 90.80 L 496.00 91.58 L 495.00 91.81 L 494.00 92.83 L 493.00 93.14 L 492.00 92.45 L 491.00 95.90 L 490.00 90.09 L 489.00 88.54 L 488.00 88.55 L 487.00 88.56 L 486.00 88.55 L 485.00 88.56 L 484.00 88.56 L 483.00 88.57 L 482.00 88.56 L 481.00 88.56 L 480.00 88.58 L 479.00 88.54 L 478.00 88.57 L 477.00 88.56 L 476.00 88.62 L 475.00 88.64 L 474.00 88.63 L 473.00 88.62 L 472.00 88.62 L 471.00 88.69 L 470.00 88.67 L 469.00 88.77 L 468.00 88.76 L 467.00 89.80 L 466.00 89.34 L 465.00 88.74 L 464.00 88.58 L 463.00 88.67 L 462.00 88.60 L 461.00 88.72 L 460.00 88.82 L 459.00 88.73 L 458.00 88.81 L 457.00 88.93 L 456.00 88.83 L 455.00 89.01 L 454.00 89.09 L 453.00 89.13 L 452.00 89.05 L 451.00 88.90 L 450.00 89.29 L 449.00 89.55 L 448.00 89.50 L 447.00 90.90 L 446.00 90.33 L 445.00 90.85 L 444.00 92.18 L 443.00 93.03 L 442.00 93.88 L 441.00 95.49 L 440.00 97.00 L 439.00 91.31 L 438.00 88.51 L 437.00 88.50 L 436.00 88.51 L 435.00 88.51 L 434.00 88.51 L 433.00 88.52 L 432.00 88.51 L 431.00 88.51 L 430.00 88.53 L 429.00 88.52 L 428.00 88.51 L 427.00 88.52 L 426.00 88.54 L 425.00 88.53 L 424.00 88.54 L 423.00 88.54 L 422.00 88.55 L 421.00 88.58 L 420.00 88.58 L 419.00 88.56 L 418.00 88.61 L 417.00 88.62 L 416.00 89.73 L 415.00 89.57 L 414.00 88.87 L 413.00 88.55 L 412.00 88.52 L 411.00 88.53 L 410.00 88.53 L 409.00 88.53 L 408.00 88.53 L 407.00 88.53 L 406.00 88.53 L 405.00 88.54 L 404.00 88.55 L 403.00 88.53 L 402.00 88.55 L 401.00 88.56 L 400.00 88.56 L 399.00 88.58 L 398.00 88.59 L 397.00 88.58 L 396.00 88.62 L 395.00 88.59 L 394.00 88.66 L 393.00 88.72 L 392.00 88.78 L 391.00 88.78 L 390.00 89.89 L 389.00 89.97 L 388.00 91.40 L 387.00 88.51 L 386.00 88.51 L 385.00 88.51 L 384.00 88.51 L 383.00 88.51 L 382.00 88.51 L 381.00 88.52 L 380.00 88.51 L 379.00 88.54 L 378.00 88.52 L 377.00 88.51 L 376.00 88.52 L 375.00 88.53 L 374.00 88.52 L 373.00 88.54 L 372.00 88.54 L 371.00 88.56 L 370.00 88.59 L 369.00 88.57 L 368.00 88.56 L 367.00 88.56 L 366.00 88.62 L 365.00 89.14 L 364.00 89.75 L 363.00 89.23 L 362.00 88.62 L 361.00 88.54 L 360.00 88.52 L 359.00 88.54 L 358.00 88.52 L 357.00 88.54 L 356.00 88.56 L 355.00 88.55 L 354.00 88.55 L 353.00 88.54 L 352.00 88.55 L 351.00 88.56 L 350.00 88.56 L 349.00 88.58 L 348.00 88.59 L 347.00 88.59 L 346.00 88.59 L 345.00 88.58 L 344.00 88.60 L 343.00 88.66 L 342.00 88.70 L 341.00 88.76 L 340.00 88.88 L 339.00 90.01 L 338.00 90.06 L 337.00 91.02 L 336.00 93.00 L 335.00 88.56 L 334.00 88.58 L 333.00 88.61 L 332.00 88.63 L 331.00 88.60 L 330.00 88.62 L 329.00 88.62 L 328.00 88.61 L 327.00 88.68 L 326.00 88.62 L 325.00 88.62 L 324.00 88.64 L 323.00 88.74 L 322.00 88.63 L 321.00 88.82 L 320.00 88.73 L 319.00 88.73 L 318.00 88.92 L 317.00 88.89 L 316.00 89.01 L 315.00 89.02 L 314.00 89.24 L 313.00 90.24 L 312.00 89.99 L 311.00 91.59 L 310.00 89.01 L 309.00 88.86 L 308.00 89.09 L 307.00 89.09 L 306.00 89.02 L 305.00 89.05 L 304.00 89.15 L 303.00 89.20 L 302.00 89.21 L 301.00 89.40 L 300.00 89.51 L 299.00 89.57 L 298.00 89.64 L 297.00 89.86 L 296.00 90.41 L 295.00 90.12 L 294.00 91.01 L 293.00 91.12 L 292.00 90.82 L 291.00 91.34 L 290.00 91.62 L 289.00 91.69 L 288.00 93.05 L 287.00 92.50 L 286.00 95.83 L 285.00 91.50 L 284.00 88.55 L 283.00 88.55 L 282.00 88.56 L 281.00 88.56 L 280.00 88.56 L 279.00 88.56 L 278.00 88.55 L 277.00 88.55 L 276.00 88.55 L 275.00 88.53 L 274.00 88.54 L 273.00 88.57 L 272.00 88.54 L 271.00 88.59 L 270.00 88.60 L 269.00 88.59 L 268.00 88.61 L 267.00 88.64 L 266.00 88.59 L 265.00 88.64 L 264.00 88.73 L 263.00 88.73 L 262.00 89.74 L 261.00 89.66 L 260.00 88.90 L 259.00 88.70 L 258.00 88.75 L 257.00 88.67 L 256.00 88.72 L 255.00 88.64 L 254.00 88.67 L 253.00 88.73 L 252.00 88.68 L 251.00 88.66 L 250.00 88.79 L 249.00 88.87 L 248.00 88.91 L 247.00 88.83 L 246.00 88.90 L 245.00 88.97 L 244.00 89.28 L 243.00 89.39 L 242.00 89.71 L 241.00 90.11 L 240.00 89.96 L 239.00 90.93 L 238.00 91.35 L 237.00 93.15 L 236.00 94.05 L 235.00 94.97 L 234.00 96.40 L 233.00 88.51 L 232.00 88.51 L 231.00 88.51 L 230.00 88.51 L 229.00 88.51 L 228.00 88.51 L 227.00 88.51 L 226.00 88.51 L 225.00 88.54 L 224.00 88.52 L 223.00 88.52 L 222.00 88.52 L 221.00 88.53 L 220.00 88.52 L 219.00 88.54 L 218.00 88.54 L 217.00 88.56 L 216.00 88.59 L 215.00 88.57 L 214.00 88.56 L 213.00 88.56 L 212.00 88.60 L 211.00 89.14 L 210.00 89.74 L 209.00 89.23 L 208.00 88.60 L 207.00 88.53 L 206.00 88.53 L 205.00 88.56 L 204.00 88.54 L 203.00 88.55 L 202.00 88.55 L 201.00 88.56 L 200.00 88.56 L 199.00 88.57 L 198.00 88.56 L 197.00 88.55 L 196.00 88.57 L 195.00 88.60 L 194.00 88.57 L 193.00 88.57 L 192.00 88.61 L 191.00 88.59 L 190.00 88.66 L 189.00 88.64 L 188.00 88.70 L 187.00 88.79 L 186.00 88.89 L 185.00 89.90 L 184.00 90.12 L 183.00 90.89 L 182.00 93.07 L 181.00 88.62 L 180.00 88.55 L 179.00 88.61 L 178.00 88.66 L 177.00 88.57 L 176.00 88.63 L 175.00 88.62 L 174.00 88.62 L 173.00 88.71 L 172.00 88.70 L 171.00 88.65 L 170.00 88.68 L 169.00 88.75 L 168.00 88.76 L 167.00 88.81 L 166.00 88.79 L 165.00 88.89 L 164.00 88.88 L 163.00 88.89 L 162.00 89.08 L 161.00 89.20 L 160.00 89.25 L 159.00 90.37 L 158.00 90.17 L 157.00 91.46 L 156.00 88.89 L 155.00 89.07 L 154.00 88.86 L 153.00 89.15 L 152.00 89.29 L 151.00 88.90 L 150.00 89.52 L 149.00 89.58 L 148.00 89.44 L 147.00 89.40 L 146.00 89.58 L 145.00 89.97 L 144.00 89.34 L 143.00 90.65 L 142.00 90.93 L 141.00 89.46 L 140.00 91.69 L 139.00 91.41 L 138.00 89.58 L 137.00 92.07 L 136.00 92.96 L 135.00 91.35 L 134.00 92.43 L 133.00 93.55 L 132.00 92.93 L 131.00 92.04 L 130.00 88.51 L 129.00 88.51 L 128.00 88.50 L 127.00 88.51 L 126.00 88.51 L 125.00 88.51 L 124.00 88.51 L 123.00 88.51 L 122.00 88.53 L 121.00 88.52 L 120.00 88.52 L 119.00 88.52 L 118.00 88.53 L 117.00 88.53 L 116.00 88.53 L 115.00 88.54 L 114.00 88.55 L 113.00 88.57 L 112.00 88.56 L 111.00 88.55 L 110.00 88.60 L 109.00 88.59 L 108.00 89.59 L 107.00 89.46 L 106.00 88.82 L 105.00 88.55 L 104.00 88.52 L 103.00 88.53 L 102.00 88.53 L 101.00 88.53 L 100.00 88.52 L 99.00 88.53 L 98.00 88.54 L 97.00 88.53 L 96.00 88.55 L 95.00 88.54 L 94.00 88.55 L 93.00 88.56 L 92.00 88.56 L 91.00 88.56 L 90.00 88.58 L 89.00 88.56 L 88.00 88.59 L 87.00 88.59 L 86.00 88.67 L 85.00 88.70 L 84.00 88.75 L 83.00 88.77 L 82.00 89.86 L 81.00 89.95 L 80.00 91.24 Z" fill="var(--ink)" opacity="0.78"/>
  <path d="M 80.00 237.52 L 81.00 247.45 L 82.00 248.06 L 83.00 255.27 L 84.00 255.68 L 85.00 256.24 L 86.00 256.28 L 87.00 256.92 L 88.00 256.74 L 89.00 257.06 L 90.00 256.97 L 91.00 257.13 L 92.00 256.92 L 93.00 257.15 L 94.00 257.16 L 95.00 257.25 L 96.00 257.15 L 97.00 257.26 L 98.00 257.21 L 99.00 257.26 L 100.00 257.34 L 101.00 257.31 L 102.00 257.28 L 103.00 257.29 L 104.00 257.37 L 105.00 257.21 L 106.00 253.74 L 107.00 250.48 L 108.00 250.69 L 109.00 256.83 L 110.00 257.07 L 111.00 257.08 L 112.00 256.84 L 113.00 257.08 L 114.00 257.11 L 115.00 257.26 L 116.00 257.25 L 117.00 257.29 L 118.00 257.13 L 119.00 257.40 L 120.00 257.39 L 121.00 257.35 L 122.00 257.29 L 123.00 257.44 L 124.00 257.43 L 125.00 257.43 L 126.00 257.44 L 127.00 257.45 L 128.00 257.47 L 129.00 257.46 L 130.00 257.46 L 131.00 256.27 L 132.00 199.65 L 133.00 220.37 L 134.00 224.53 L 135.00 224.40 L 136.00 227.06 L 137.00 231.27 L 138.00 235.35 L 139.00 236.06 L 140.00 239.49 L 141.00 238.76 L 142.00 241.41 L 143.00 247.55 L 144.00 245.53 L 145.00 247.41 L 146.00 250.87 L 147.00 251.30 L 148.00 250.22 L 149.00 250.16 L 150.00 253.18 L 151.00 250.72 L 152.00 252.21 L 153.00 255.17 L 154.00 253.66 L 155.00 253.90 L 156.00 255.00 L 157.00 234.37 L 158.00 244.18 L 159.00 244.35 L 160.00 250.89 L 161.00 253.44 L 162.00 255.07 L 163.00 254.77 L 164.00 254.68 L 165.00 255.73 L 166.00 254.58 L 167.00 255.59 L 168.00 255.41 L 169.00 256.19 L 170.00 256.25 L 171.00 256.02 L 172.00 256.20 L 173.00 256.08 L 174.00 256.64 L 175.00 256.71 L 176.00 256.60 L 177.00 256.79 L 178.00 256.81 L 179.00 256.70 L 180.00 256.76 L 181.00 256.84 L 182.00 232.84 L 183.00 238.39 L 184.00 248.97 L 185.00 247.45 L 186.00 254.41 L 187.00 255.73 L 188.00 256.26 L 189.00 256.15 L 190.00 256.33 L 191.00 256.61 L 192.00 256.78 L 193.00 256.95 L 194.00 256.93 L 195.00 256.91 L 196.00 257.10 L 197.00 257.00 L 198.00 257.00 L 199.00 257.08 L 200.00 257.07 L 201.00 257.09 L 202.00 257.09 L 203.00 257.06 L 204.00 257.21 L 205.00 257.33 L 206.00 257.23 L 207.00 257.32 L 208.00 256.79 L 209.00 253.17 L 210.00 249.53 L 211.00 252.81 L 212.00 256.83 L 213.00 256.96 L 214.00 257.06 L 215.00 256.80 L 216.00 257.17 L 217.00 257.02 L 218.00 257.17 L 219.00 257.21 L 220.00 257.32 L 221.00 257.10 L 222.00 257.37 L 223.00 257.37 L 224.00 257.25 L 225.00 257.29 L 226.00 257.39 L 227.00 257.40 L 228.00 257.38 L 229.00 257.41 L 230.00 257.45 L 231.00 257.45 L 232.00 257.45 L 233.00 257.45 L 234.00 200.33 L 235.00 213.76 L 236.00 223.41 L 237.00 223.66 L 238.00 232.50 L 239.00 244.09 L 240.00 244.77 L 241.00 244.80 L 242.00 249.83 L 243.00 250.87 L 244.00 250.72 L 245.00 254.29 L 246.00 255.20 L 247.00 253.86 L 248.00 255.23 L 249.00 255.59 L 250.00 255.83 L 251.00 256.06 L 252.00 255.98 L 253.00 255.54 L 254.00 256.43 L 255.00 256.61 L 256.00 256.39 L 257.00 256.43 L 258.00 255.64 L 259.00 255.73 L 260.00 253.80 L 261.00 250.28 L 262.00 249.69 L 263.00 255.63 L 264.00 255.75 L 265.00 256.32 L 266.00 256.53 L 267.00 256.71 L 268.00 256.72 L 269.00 256.83 L 270.00 256.81 L 271.00 256.96 L 272.00 257.00 L 273.00 257.11 L 274.00 257.23 L 275.00 257.20 L 276.00 257.26 L 277.00 257.19 L 278.00 257.12 L 279.00 257.04 L 280.00 257.09 L 281.00 257.12 L 282.00 257.03 L 283.00 257.16 L 284.00 257.21 L 285.00 237.63 L 286.00 218.32 L 287.00 219.31 L 288.00 237.37 L 289.00 230.77 L 290.00 230.46 L 291.00 250.52 L 292.00 238.74 L 293.00 235.93 L 294.00 251.44 L 295.00 243.28 L 296.00 244.87 L 297.00 249.32 L 298.00 248.42 L 299.00 250.07 L 300.00 249.95 L 301.00 253.94 L 302.00 250.62 L 303.00 252.49 L 304.00 253.79 L 305.00 253.17 L 306.00 253.09 L 307.00 254.52 L 308.00 254.04 L 309.00 254.07 L 310.00 254.85 L 311.00 238.01 L 312.00 243.63 L 313.00 244.10 L 314.00 252.91 L 315.00 252.65 L 316.00 254.84 L 317.00 255.36 L 318.00 255.44 L 319.00 255.00 L 320.00 255.98 L 321.00 255.46 L 322.00 255.17 L 323.00 256.74 L 324.00 255.91 L 325.00 256.37 L 326.00 256.71 L 327.00 256.67 L 328.00 256.62 L 329.00 256.67 L 330.00 256.82 L 331.00 256.73 L 332.00 256.56 L 333.00 256.56 L 334.00 256.81 L 335.00 256.74 L 336.00 231.94 L 337.00 238.27 L 338.00 248.48 L 339.00 246.96 L 340.00 254.16 L 341.00 256.07 L 342.00 256.33 L 343.00 256.34 L 344.00 256.66 L 345.00 256.91 L 346.00 256.90 L 347.00 256.91 L 348.00 256.60 L 349.00 257.00 L 350.00 256.97 L 351.00 257.12 L 352.00 257.15 L 353.00 257.04 L 354.00 257.09 L 355.00 257.21 L 356.00 257.12 L 357.00 257.26 L 358.00 257.28 L 359.00 257.28 L 360.00 257.32 L 361.00 257.21 L 362.00 256.89 L 363.00 253.05 L 364.00 249.32 L 365.00 252.80 L 366.00 256.82 L 367.00 256.97 L 368.00 257.04 L 369.00 256.80 L 370.00 257.13 L 371.00 257.08 L 372.00 257.23 L 373.00 257.23 L 374.00 257.33 L 375.00 257.11 L 376.00 257.40 L 377.00 257.41 L 378.00 257.34 L 379.00 257.31 L 380.00 257.42 L 381.00 257.42 L 382.00 257.36 L 383.00 257.42 L 384.00 257.45 L 385.00 257.45 L 386.00 257.45 L 387.00 257.44 L 388.00 236.21 L 389.00 246.89 L 390.00 247.61 L 391.00 255.61 L 392.00 255.23 L 393.00 256.19 L 394.00 256.50 L 395.00 256.99 L 396.00 256.58 L 397.00 256.88 L 398.00 256.88 L 399.00 256.88 L 400.00 257.03 L 401.00 257.18 L 402.00 257.12 L 403.00 257.25 L 404.00 257.10 L 405.00 257.25 L 406.00 257.28 L 407.00 257.27 L 408.00 257.26 L 409.00 257.25 L 410.00 257.32 L 411.00 257.32 L 412.00 257.32 L 413.00 257.21 L 414.00 253.29 L 415.00 249.65 L 416.00 249.96 L 417.00 256.77 L 418.00 257.00 L 419.00 257.07 L 420.00 256.84 L 421.00 257.12 L 422.00 257.06 L 423.00 257.21 L 424.00 257.18 L 425.00 257.32 L 426.00 257.15 L 427.00 257.38 L 428.00 257.39 L 429.00 257.32 L 430.00 257.30 L 431.00 257.41 L 432.00 257.41 L 433.00 257.43 L 434.00 257.45 L 435.00 257.42 L 436.00 257.46 L 437.00 257.46 L 438.00 257.46 L 439.00 232.85 L 440.00 197.74 L 441.00 205.16 L 442.00 221.62 L 443.00 227.19 L 444.00 232.41 L 445.00 242.01 L 446.00 244.74 L 447.00 244.46 L 448.00 246.80 L 449.00 250.21 L 450.00 253.31 L 451.00 253.60 L 452.00 255.06 L 453.00 253.85 L 454.00 254.29 L 455.00 253.72 L 456.00 254.22 L 457.00 255.23 L 458.00 255.29 L 459.00 255.51 L 460.00 256.03 L 461.00 255.61 L 462.00 255.69 L 463.00 256.53 L 464.00 256.75 L 465.00 255.39 L 466.00 252.59 L 467.00 249.15 L 468.00 255.46 L 469.00 255.77 L 470.00 256.33 L 471.00 256.31 L 472.00 256.68 L 473.00 256.67 L 474.00 256.72 L 475.00 256.71 L 476.00 256.60 L 477.00 257.04 L 478.00 257.18 L 479.00 257.11 L 480.00 256.89 L 481.00 257.11 L 482.00 256.98 L 483.00 257.06 L 484.00 257.03 L 485.00 257.18 L 486.00 257.12 L 487.00 257.04 L 488.00 257.13 L 489.00 257.25 L 490.00 257.20 L 491.00 217.40 L 492.00 218.05 L 493.00 219.65 L 494.00 231.14 L 495.00 247.56 L 496.00 229.21 L 497.00 237.89 L 498.00 253.02 L 499.00 235.03 L 500.00 241.71 L 501.00 250.41 L 502.00 245.46 L 503.00 248.15 L 504.00 249.65 L 505.00 250.78 L 506.00 249.76 L 507.00 250.82 L 508.00 251.87 L 509.00 251.76 L 510.00 252.21 L 511.00 252.69 L 512.00 252.78 L 513.00 253.56 L 514.00 253.61 L 515.00 254.49 L 516.00 237.47 L 517.00 244.42 L 518.00 244.67 L 519.00 249.69 L 520.00 252.88 L 521.00 253.98 L 522.00 254.68 L 523.00 255.02 L 524.00 254.77 L 525.00 255.18 L 526.00 255.29 L 527.00 254.84 L 528.00 255.57 L 529.00 255.30 L 530.00 255.77 L 531.00 256.54 L 532.00 256.04 L 533.00 255.86 L 534.00 256.90 L 535.00 256.66 L 536.00 256.64 L 537.00 256.91 L 538.00 256.68 L 539.00 256.82 L 540.00 256.78 L 541.00 256.99 L 542.00 221.12 L 543.00 199.47 L 544.00 221.17 L 545.00 235.08 L 546.00 224.61 L 547.00 228.26 L 548.00 243.62 L 549.00 236.30 L 550.00 237.08 L 551.00 241.73 L 552.00 239.09 L 553.00 242.20 L 554.00 248.15 L 555.00 245.69 L 556.00 249.14 L 557.00 250.68 L 558.00 251.02 L 559.00 250.22 L 560.00 251.80 L 561.00 253.75 L 562.00 252.13 L 563.00 252.65 L 564.00 253.83 L 565.00 253.19 L 566.00 253.53 L 567.00 254.01 L 568.00 253.32 L 569.00 249.98 L 570.00 252.06 L 571.00 254.57 L 572.00 254.38 L 573.00 254.92 L 574.00 255.89 L 575.00 255.15 L 576.00 255.53 L 577.00 255.70 L 578.00 256.24 L 579.00 255.73 L 580.00 256.05 L 581.00 256.77 L 582.00 256.18 L 583.00 256.35 L 584.00 256.90 L 585.00 256.60 L 586.00 256.57 L 587.00 256.85 L 588.00 256.56 L 589.00 256.63 L 590.00 257.28 L 591.00 256.84 L 592.00 257.02 L 593.00 232.37 L 594.00 246.19 L 595.00 247.14 L 596.00 250.95 L 597.00 254.71 L 598.00 256.21 L 599.00 256.07 L 600.00 256.56 L 601.00 256.55 L 602.00 256.92 L 603.00 256.72 L 604.00 256.97 L 605.00 256.98 L 606.00 257.11 L 607.00 256.97 L 608.00 256.96 L 609.00 257.05 L 610.00 257.04 L 611.00 256.98 L 612.00 257.18 L 613.00 257.08 L 614.00 257.20 L 615.00 257.21 L 616.00 257.26 L 617.00 257.24 L 618.00 257.20 L 619.00 255.62 L 620.00 251.82 L 621.00 249.45 L 622.00 255.63 L 623.00 256.85 L 624.00 257.03 L 625.00 256.86 L 626.00 257.01 L 627.00 257.20 L 628.00 257.07 L 629.00 257.21 L 630.00 257.26 L 631.00 257.15 L 632.00 257.25 L 633.00 257.39 L 634.00 257.38 L 635.00 257.27 L 636.00 257.39 L 637.00 257.42 L 638.00 257.41 L 639.00 257.43 L 640.00 257.45 L 641.00 257.44 L 642.00 257.44 L 643.00 257.46 L 644.00 257.29 L 645.00 219.62 L 646.00 218.53 L 647.00 219.25 L 648.00 231.56 L 649.00 249.46 L 650.00 230.31 L 651.00 238.01 L 652.00 253.07 L 653.00 236.23 L 654.00 243.37 L 655.00 252.01 L 656.00 244.93 L 657.00 249.46 L 658.00 250.47 L 659.00 251.55 L 660.00 250.28 L 661.00 251.23 L 662.00 253.48 L 663.00 252.41 L 664.00 253.68 L 665.00 254.14 L 666.00 253.48 L 667.00 254.37 L 668.00 254.39 L 669.00 255.05 L 670.00 233.27 L 671.00 247.19 L 672.00 248.13 L 673.00 248.99 L 674.00 254.12 L 675.00 254.62 L 676.00 255.47 L 677.00 255.07 L 678.00 254.96 L 679.00 255.71 L 680.00 255.35 L 681.00 255.69 L 682.00 256.57 L 683.00 255.97 L 684.00 256.39 L 685.00 256.34 L 686.00 256.17 L 687.00 256.21 L 688.00 256.59 L 689.00 256.82 L 690.00 256.71 L 691.00 256.66 L 692.00 256.99 L 693.00 256.81 L 694.00 256.92 L 695.00 257.20 L 695.00 258.22 L 694.00 258.20 L 693.00 257.96 L 692.00 258.12 L 691.00 258.25 L 690.00 258.12 L 689.00 258.54 L 688.00 258.55 L 687.00 258.38 L 686.00 258.44 L 685.00 258.62 L 684.00 258.91 L 683.00 258.60 L 682.00 258.89 L 681.00 259.35 L 680.00 258.63 L 679.00 259.59 L 678.00 259.95 L 677.00 258.63 L 676.00 260.09 L 675.00 260.50 L 674.00 261.25 L 673.00 262.86 L 672.00 268.56 L 671.00 269.95 L 670.00 282.46 L 669.00 260.33 L 668.00 260.78 L 667.00 260.62 L 666.00 261.19 L 665.00 261.38 L 664.00 261.00 L 663.00 262.21 L 662.00 262.97 L 661.00 260.51 L 660.00 264.18 L 659.00 265.32 L 658.00 263.75 L 657.00 265.75 L 656.00 267.51 L 655.00 271.04 L 654.00 264.49 L 653.00 275.52 L 652.00 276.57 L 651.00 274.08 L 650.00 278.16 L 649.00 280.06 L 648.00 288.18 L 647.00 290.15 L 646.00 285.68 L 645.00 309.36 L 644.00 268.05 L 643.00 257.57 L 642.00 257.56 L 641.00 257.57 L 640.00 257.55 L 639.00 257.55 L 638.00 257.60 L 637.00 257.60 L 636.00 257.63 L 635.00 257.73 L 634.00 257.59 L 633.00 257.62 L 632.00 257.68 L 631.00 257.76 L 630.00 257.75 L 629.00 257.75 L 628.00 257.89 L 627.00 257.97 L 626.00 258.10 L 625.00 258.09 L 624.00 257.91 L 623.00 258.28 L 622.00 258.81 L 621.00 266.24 L 620.00 263.15 L 619.00 258.81 L 618.00 257.80 L 617.00 257.76 L 616.00 257.79 L 615.00 257.80 L 614.00 257.82 L 613.00 257.87 L 612.00 257.82 L 611.00 257.85 L 610.00 257.91 L 609.00 257.96 L 608.00 257.89 L 607.00 258.11 L 606.00 257.95 L 605.00 258.20 L 604.00 258.00 L 603.00 258.19 L 602.00 258.23 L 601.00 258.27 L 600.00 258.51 L 599.00 258.93 L 598.00 258.82 L 597.00 259.32 L 596.00 262.93 L 595.00 268.31 L 594.00 271.66 L 593.00 290.17 L 592.00 257.94 L 591.00 258.07 L 590.00 258.24 L 589.00 258.38 L 588.00 258.41 L 587.00 258.49 L 586.00 258.22 L 585.00 258.46 L 584.00 258.48 L 583.00 258.85 L 582.00 258.23 L 581.00 258.80 L 580.00 259.49 L 579.00 258.60 L 578.00 259.53 L 577.00 259.06 L 576.00 259.77 L 575.00 259.29 L 574.00 260.00 L 573.00 260.68 L 572.00 258.86 L 571.00 260.80 L 570.00 268.97 L 569.00 264.24 L 568.00 262.40 L 567.00 260.82 L 566.00 259.77 L 565.00 261.74 L 564.00 262.28 L 563.00 260.81 L 562.00 262.16 L 561.00 263.30 L 560.00 261.14 L 559.00 263.40 L 558.00 264.41 L 557.00 264.99 L 556.00 262.99 L 555.00 267.61 L 554.00 271.06 L 553.00 264.08 L 552.00 274.23 L 551.00 279.45 L 550.00 270.68 L 549.00 279.03 L 548.00 281.67 L 547.00 276.06 L 546.00 287.85 L 545.00 284.90 L 544.00 292.83 L 543.00 290.88 L 542.00 288.68 L 541.00 258.18 L 540.00 258.23 L 539.00 258.14 L 538.00 258.13 L 537.00 258.49 L 536.00 258.30 L 535.00 258.21 L 534.00 258.84 L 533.00 258.87 L 532.00 258.40 L 531.00 259.21 L 530.00 259.20 L 529.00 258.56 L 528.00 259.68 L 527.00 260.31 L 526.00 258.91 L 525.00 259.69 L 524.00 260.63 L 523.00 260.45 L 522.00 259.24 L 521.00 261.39 L 520.00 261.02 L 519.00 262.52 L 518.00 269.25 L 517.00 272.61 L 516.00 280.06 L 515.00 260.59 L 514.00 260.96 L 513.00 260.05 L 512.00 262.07 L 511.00 262.04 L 510.00 261.48 L 509.00 262.95 L 508.00 263.60 L 507.00 262.17 L 506.00 265.14 L 505.00 266.30 L 504.00 264.84 L 503.00 266.50 L 502.00 267.88 L 501.00 271.17 L 500.00 264.18 L 499.00 275.48 L 498.00 277.05 L 497.00 273.78 L 496.00 279.34 L 495.00 280.91 L 494.00 288.14 L 493.00 290.36 L 492.00 285.45 L 491.00 309.90 L 490.00 268.77 L 489.00 257.79 L 488.00 257.87 L 487.00 257.91 L 486.00 257.87 L 485.00 257.93 L 484.00 257.96 L 483.00 257.99 L 482.00 257.91 L 481.00 257.96 L 480.00 258.10 L 479.00 257.81 L 478.00 257.98 L 477.00 257.92 L 476.00 258.36 L 475.00 258.46 L 474.00 258.44 L 473.00 258.32 L 472.00 258.34 L 471.00 258.87 L 470.00 258.68 L 469.00 259.42 L 468.00 259.32 L 467.00 266.74 L 466.00 263.44 L 465.00 259.20 L 464.00 258.08 L 463.00 258.72 L 462.00 258.20 L 461.00 259.07 L 460.00 259.78 L 459.00 259.13 L 458.00 259.67 L 457.00 260.54 L 456.00 259.83 L 455.00 261.10 L 454.00 261.67 L 453.00 261.99 L 452.00 261.41 L 451.00 260.32 L 450.00 263.09 L 449.00 264.93 L 448.00 264.60 L 447.00 274.46 L 446.00 270.44 L 445.00 274.18 L 444.00 283.58 L 443.00 289.60 L 442.00 295.58 L 441.00 306.98 L 440.00 317.68 L 439.00 277.37 L 438.00 257.54 L 437.00 257.53 L 436.00 257.56 L 435.00 257.56 L 434.00 257.55 L 433.00 257.61 L 432.00 257.59 L 431.00 257.57 L 430.00 257.74 L 429.00 257.63 L 428.00 257.58 L 427.00 257.65 L 426.00 257.80 L 425.00 257.70 L 424.00 257.76 L 423.00 257.79 L 422.00 257.88 L 421.00 258.09 L 420.00 258.04 L 419.00 257.91 L 418.00 258.26 L 417.00 258.33 L 416.00 266.25 L 415.00 265.07 L 414.00 260.09 L 413.00 257.85 L 412.00 257.69 L 411.00 257.70 L 410.00 257.69 L 409.00 257.73 L 408.00 257.75 L 407.00 257.74 L 406.00 257.72 L 405.00 257.78 L 404.00 257.85 L 403.00 257.74 L 402.00 257.88 L 401.00 257.90 L 400.00 257.92 L 399.00 258.07 L 398.00 258.12 L 397.00 258.08 L 396.00 258.36 L 395.00 258.15 L 394.00 258.63 L 393.00 259.04 L 392.00 259.46 L 391.00 259.49 L 390.00 267.33 L 389.00 267.95 L 388.00 278.02 L 387.00 257.55 L 386.00 257.56 L 385.00 257.55 L 384.00 257.56 L 383.00 257.57 L 382.00 257.59 L 381.00 257.61 L 380.00 257.58 L 379.00 257.80 L 378.00 257.69 L 377.00 257.61 L 376.00 257.62 L 375.00 257.73 L 374.00 257.64 L 373.00 257.76 L 372.00 257.80 L 371.00 257.95 L 370.00 258.12 L 369.00 257.99 L 368.00 257.95 L 367.00 257.93 L 366.00 258.39 L 365.00 262.06 L 364.00 266.33 L 363.00 262.69 L 362.00 258.35 L 361.00 257.81 L 360.00 257.67 L 359.00 257.81 L 358.00 257.69 L 357.00 257.79 L 356.00 257.91 L 355.00 257.87 L 354.00 257.85 L 353.00 257.82 L 352.00 257.85 L 351.00 257.90 L 350.00 257.94 L 349.00 258.08 L 348.00 258.14 L 347.00 258.11 L 346.00 258.14 L 345.00 258.07 L 344.00 258.20 L 343.00 258.62 L 342.00 258.95 L 341.00 259.35 L 340.00 260.22 L 339.00 268.20 L 338.00 268.53 L 337.00 275.32 L 336.00 289.34 L 335.00 257.91 L 334.00 258.06 L 333.00 258.28 L 332.00 258.46 L 331.00 258.18 L 330.00 258.35 L 329.00 258.35 L 328.00 258.28 L 327.00 258.75 L 326.00 258.39 L 325.00 258.37 L 324.00 258.47 L 323.00 259.22 L 322.00 258.45 L 321.00 259.74 L 320.00 259.16 L 319.00 259.11 L 318.00 260.48 L 317.00 260.30 L 316.00 261.08 L 315.00 261.18 L 314.00 262.76 L 313.00 269.85 L 312.00 268.03 L 311.00 279.36 L 310.00 261.09 L 309.00 260.08 L 308.00 261.71 L 307.00 261.70 L 306.00 261.18 L 305.00 261.40 L 304.00 262.10 L 303.00 262.49 L 302.00 262.51 L 301.00 263.85 L 300.00 264.68 L 299.00 265.09 L 298.00 265.59 L 297.00 267.12 L 296.00 270.99 L 295.00 268.96 L 294.00 275.27 L 293.00 276.04 L 292.00 273.93 L 291.00 277.58 L 290.00 279.57 L 289.00 280.08 L 288.00 289.73 L 287.00 285.86 L 286.00 309.41 L 285.00 278.72 L 284.00 257.86 L 283.00 257.86 L 282.00 257.95 L 281.00 257.91 L 280.00 257.95 L 279.00 257.93 L 278.00 257.89 L 277.00 257.87 L 276.00 257.84 L 275.00 257.73 L 274.00 257.82 L 273.00 257.99 L 272.00 257.82 L 271.00 258.15 L 270.00 258.22 L 269.00 258.12 L 268.00 258.31 L 267.00 258.52 L 266.00 258.17 L 265.00 258.47 L 264.00 259.15 L 263.00 259.14 L 262.00 266.31 L 261.00 265.72 L 260.00 260.36 L 259.00 258.93 L 258.00 259.25 L 257.00 258.73 L 256.00 259.06 L 255.00 258.50 L 254.00 258.72 L 253.00 259.15 L 252.00 258.77 L 251.00 258.61 L 250.00 259.52 L 249.00 260.12 L 248.00 260.44 L 247.00 259.82 L 246.00 260.32 L 245.00 260.85 L 244.00 263.02 L 243.00 263.80 L 242.00 266.04 L 241.00 268.89 L 240.00 267.84 L 239.00 274.73 L 238.00 277.67 L 237.00 290.40 L 236.00 296.82 L 235.00 303.27 L 234.00 313.46 L 233.00 257.55 L 232.00 257.55 L 231.00 257.56 L 230.00 257.55 L 229.00 257.58 L 228.00 257.58 L 227.00 257.59 L 226.00 257.58 L 225.00 257.76 L 224.00 257.61 L 223.00 257.65 L 222.00 257.62 L 221.00 257.74 L 220.00 257.67 L 219.00 257.77 L 218.00 257.78 L 217.00 257.91 L 216.00 258.15 L 215.00 258.02 L 214.00 257.92 L 213.00 257.96 L 212.00 258.25 L 211.00 262.03 L 210.00 266.30 L 209.00 262.70 L 208.00 258.23 L 207.00 257.70 L 206.00 257.72 L 205.00 257.90 L 204.00 257.82 L 203.00 257.83 L 202.00 257.84 L 201.00 257.92 L 200.00 257.91 L 199.00 257.97 L 198.00 257.96 L 197.00 257.86 L 196.00 258.02 L 195.00 258.20 L 194.00 258.01 L 193.00 258.03 L 192.00 258.27 L 191.00 258.11 L 190.00 258.68 L 189.00 258.47 L 188.00 258.96 L 187.00 259.54 L 186.00 260.28 L 185.00 267.45 L 184.00 269.00 L 183.00 274.46 L 182.00 289.84 L 181.00 258.36 L 180.00 257.83 L 179.00 258.26 L 178.00 258.64 L 177.00 257.97 L 176.00 258.43 L 175.00 258.35 L 174.00 258.34 L 173.00 258.98 L 172.00 258.90 L 171.00 258.55 L 170.00 258.75 L 169.00 259.27 L 168.00 259.35 L 167.00 259.70 L 166.00 259.54 L 165.00 260.29 L 164.00 260.22 L 163.00 260.29 L 162.00 261.59 L 161.00 262.46 L 160.00 262.85 L 159.00 270.74 L 158.00 269.32 L 157.00 278.49 L 156.00 260.25 L 155.00 261.54 L 154.00 260.09 L 153.00 262.07 L 152.00 263.13 L 151.00 260.33 L 150.00 264.74 L 149.00 265.14 L 148.00 264.19 L 147.00 263.90 L 146.00 265.14 L 145.00 267.90 L 144.00 263.46 L 143.00 272.69 L 142.00 274.73 L 141.00 264.34 L 140.00 280.08 L 139.00 278.10 L 138.00 265.13 L 137.00 282.80 L 136.00 289.11 L 135.00 277.71 L 134.00 285.30 L 133.00 293.24 L 132.00 288.85 L 131.00 282.59 L 130.00 257.55 L 129.00 257.54 L 128.00 257.54 L 127.00 257.54 L 126.00 257.56 L 125.00 257.57 L 124.00 257.58 L 123.00 257.56 L 122.00 257.69 L 121.00 257.62 L 120.00 257.62 L 119.00 257.64 L 118.00 257.74 L 117.00 257.69 L 116.00 257.72 L 115.00 257.81 L 114.00 257.85 L 113.00 258.02 L 112.00 257.92 L 111.00 257.84 L 110.00 258.23 L 109.00 258.18 L 108.00 265.21 L 107.00 264.28 L 106.00 259.80 L 105.00 257.89 L 104.00 257.64 L 103.00 257.70 L 102.00 257.73 L 101.00 257.70 L 100.00 257.65 L 99.00 257.73 L 98.00 257.79 L 97.00 257.74 L 96.00 257.85 L 95.00 257.77 L 94.00 257.86 L 93.00 257.91 L 92.00 257.94 L 91.00 257.93 L 90.00 258.10 L 89.00 257.96 L 88.00 258.15 L 87.00 258.15 L 86.00 258.74 L 85.00 258.89 L 84.00 259.27 L 83.00 259.44 L 82.00 267.12 L 81.00 267.76 L 80.00 276.93 Z" fill="var(--ink)" opacity="0.78"/>

  <!-- Ceiling annotation -->
  <text x="690" y="21.67"
        font-family="DM Mono, monospace" font-size="10" fill="var(--accent)" text-anchor="end">−1 dB ceiling</text>
  <text x="690" y="190.67"
        font-family="DM Mono, monospace" font-size="10" fill="var(--accent)" text-anchor="end">−1 dB ceiling</text>

  <!-- Time axis -->
  <text x="388.00" y="352"
        font-family="DM Mono, monospace" font-size="10" fill="var(--ink-soft)" text-anchor="middle">6 seconds →</text>
</svg>
