<svg xmlns="http://www.w3.org/2000/svg" viewBox="0 0 720 360"
     role="img" aria-label="Waveform comparison: wide-dynamic-range version above, narrow-compressed version below, both with the same -3 dBFS peak ceiling marked">
  <rect width="720" height="360" fill="var(--bg-alt)"/>

  <!-- Panel labels -->
  <text x="68" y="92.5" text-anchor="end"
        font-family="DM Mono, monospace" font-size="11" fill="var(--ink)">wide</text>
  <text x="68" y="261.5" text-anchor="end"
        font-family="DM Mono, monospace" font-size="11" fill="var(--ink)">narrow</text>

  <!-- Ceiling lines at -3 dBFS, drawn in panel 1 -->
  <line x1="80" y1="38.59" x2="696" y2="38.59"
        stroke="var(--accent)" stroke-width="0.8" stroke-dasharray="4,4" opacity="0.7"/>
  <line x1="80" y1="138.41" x2="696" y2="138.41"
        stroke="var(--accent)" stroke-width="0.8" stroke-dasharray="4,4" opacity="0.7"/>

  <!-- Ceiling lines at -3 dBFS, drawn in panel 2 (SAME vertical offset from center as panel 1) -->
  <line x1="80" y1="207.59" x2="696" y2="207.59"
        stroke="var(--accent)" stroke-width="0.8" stroke-dasharray="4,4" opacity="0.7"/>
  <line x1="80" y1="307.41" x2="696" y2="307.41"
        stroke="var(--accent)" stroke-width="0.8" stroke-dasharray="4,4" opacity="0.7"/>

  <!-- Center reference lines (thin, subtle) -->
  <line x1="80" y1="88.50" x2="696" y2="88.50"
        stroke="var(--ink-soft)" stroke-width="0.4" opacity="0.4"/>
  <line x1="80" y1="257.50" x2="696" y2="257.50"
        stroke="var(--ink-soft)" stroke-width="0.4" opacity="0.4"/>

  <!-- Waveform fills -->
  <path d="M 80.00 72.63 L 81.00 80.52 L 82.00 81.00 L 83.00 86.73 L 84.00 87.05 L 85.00 87.50 L 86.00 87.53 L 87.00 88.04 L 88.00 87.90 L 89.00 88.15 L 90.00 88.08 L 91.00 88.20 L 92.00 88.04 L 93.00 88.22 L 94.00 88.23 L 95.00 88.30 L 96.00 88.22 L 97.00 88.31 L 98.00 88.27 L 99.00 88.31 L 100.00 88.38 L 101.00 88.35 L 102.00 88.33 L 103.00 88.33 L 104.00 88.40 L 105.00 88.27 L 106.00 85.52 L 107.00 82.92 L 108.00 83.09 L 109.00 87.97 L 110.00 88.15 L 111.00 88.17 L 112.00 87.98 L 113.00 88.17 L 114.00 88.19 L 115.00 88.31 L 116.00 88.30 L 117.00 88.33 L 118.00 88.21 L 119.00 88.42 L 120.00 88.42 L 121.00 88.38 L 122.00 88.34 L 123.00 88.45 L 124.00 88.44 L 125.00 88.45 L 126.00 88.45 L 127.00 88.46 L 128.00 88.48 L 129.00 88.47 L 130.00 88.47 L 131.00 87.52 L 132.00 42.55 L 133.00 59.01 L 134.00 62.31 L 135.00 62.21 L 136.00 64.32 L 137.00 67.67 L 138.00 70.91 L 139.00 71.47 L 140.00 74.20 L 141.00 73.61 L 142.00 75.72 L 143.00 80.60 L 144.00 78.99 L 145.00 80.48 L 146.00 83.24 L 147.00 83.58 L 148.00 82.71 L 149.00 82.67 L 150.00 85.07 L 151.00 83.12 L 152.00 84.30 L 153.00 86.65 L 154.00 85.45 L 155.00 85.64 L 156.00 86.52 L 157.00 70.13 L 158.00 77.92 L 159.00 78.05 L 160.00 83.25 L 161.00 85.28 L 162.00 86.57 L 163.00 86.33 L 164.00 86.26 L 165.00 87.09 L 166.00 86.18 L 167.00 86.98 L 168.00 86.84 L 169.00 87.46 L 170.00 87.51 L 171.00 87.32 L 172.00 87.47 L 173.00 87.37 L 174.00 87.81 L 175.00 87.87 L 176.00 87.78 L 177.00 87.94 L 178.00 87.95 L 179.00 87.87 L 180.00 87.91 L 181.00 87.98 L 182.00 68.91 L 183.00 73.32 L 184.00 81.72 L 185.00 80.52 L 186.00 86.05 L 187.00 87.09 L 188.00 87.52 L 189.00 87.43 L 190.00 87.57 L 191.00 87.79 L 192.00 87.93 L 193.00 88.06 L 194.00 88.05 L 195.00 88.03 L 196.00 88.18 L 197.00 88.11 L 198.00 88.11 L 199.00 88.17 L 200.00 88.16 L 201.00 88.17 L 202.00 88.18 L 203.00 88.15 L 204.00 88.27 L 205.00 88.36 L 206.00 88.28 L 207.00 88.36 L 208.00 87.94 L 209.00 85.06 L 210.00 82.17 L 211.00 84.78 L 212.00 87.97 L 213.00 88.08 L 214.00 88.15 L 215.00 87.94 L 216.00 88.24 L 217.00 88.12 L 218.00 88.24 L 219.00 88.27 L 220.00 88.36 L 221.00 88.18 L 222.00 88.39 L 223.00 88.40 L 224.00 88.30 L 225.00 88.34 L 226.00 88.42 L 227.00 88.42 L 228.00 88.41 L 229.00 88.43 L 230.00 88.46 L 231.00 88.46 L 232.00 88.46 L 233.00 88.46 L 234.00 43.09 L 235.00 53.76 L 236.00 61.42 L 237.00 61.62 L 238.00 68.64 L 239.00 77.85 L 240.00 78.39 L 241.00 78.41 L 242.00 82.41 L 243.00 83.24 L 244.00 83.12 L 245.00 85.95 L 246.00 86.67 L 247.00 85.61 L 248.00 86.70 L 249.00 86.98 L 250.00 87.17 L 251.00 87.36 L 252.00 87.29 L 253.00 86.94 L 254.00 87.65 L 255.00 87.79 L 256.00 87.62 L 257.00 87.65 L 258.00 87.02 L 259.00 87.10 L 260.00 85.56 L 261.00 82.77 L 262.00 82.29 L 263.00 87.02 L 264.00 87.11 L 265.00 87.56 L 266.00 87.73 L 267.00 87.87 L 268.00 87.88 L 269.00 87.97 L 270.00 87.95 L 271.00 88.07 L 272.00 88.10 L 273.00 88.19 L 274.00 88.28 L 275.00 88.26 L 276.00 88.31 L 277.00 88.25 L 278.00 88.20 L 279.00 88.14 L 280.00 88.17 L 281.00 88.20 L 282.00 88.12 L 283.00 88.23 L 284.00 88.27 L 285.00 72.72 L 286.00 57.38 L 287.00 58.17 L 288.00 72.51 L 289.00 67.27 L 290.00 67.02 L 291.00 82.95 L 292.00 73.60 L 293.00 71.37 L 294.00 83.69 L 295.00 77.20 L 296.00 78.47 L 297.00 82.00 L 298.00 81.29 L 299.00 82.60 L 300.00 82.50 L 301.00 85.67 L 302.00 83.04 L 303.00 84.52 L 304.00 85.56 L 305.00 85.06 L 306.00 85.00 L 307.00 86.14 L 308.00 85.76 L 309.00 85.77 L 310.00 86.39 L 311.00 73.02 L 312.00 77.48 L 313.00 77.86 L 314.00 84.86 L 315.00 84.65 L 316.00 86.39 L 317.00 86.80 L 318.00 86.86 L 319.00 86.52 L 320.00 87.29 L 321.00 86.88 L 322.00 86.65 L 323.00 87.90 L 324.00 87.24 L 325.00 87.60 L 326.00 87.87 L 327.00 87.84 L 328.00 87.80 L 329.00 87.84 L 330.00 87.96 L 331.00 87.89 L 332.00 87.75 L 333.00 87.75 L 334.00 87.95 L 335.00 87.90 L 336.00 68.20 L 337.00 73.23 L 338.00 81.34 L 339.00 80.13 L 340.00 85.85 L 341.00 87.37 L 342.00 87.57 L 343.00 87.58 L 344.00 87.83 L 345.00 88.03 L 346.00 88.03 L 347.00 88.03 L 348.00 87.79 L 349.00 88.10 L 350.00 88.08 L 351.00 88.20 L 352.00 88.22 L 353.00 88.13 L 354.00 88.17 L 355.00 88.27 L 356.00 88.20 L 357.00 88.31 L 358.00 88.33 L 359.00 88.32 L 360.00 88.36 L 361.00 88.27 L 362.00 88.02 L 363.00 84.97 L 364.00 82.00 L 365.00 84.77 L 366.00 87.96 L 367.00 88.08 L 368.00 88.14 L 369.00 87.95 L 370.00 88.21 L 371.00 88.16 L 372.00 88.29 L 373.00 88.29 L 374.00 88.36 L 375.00 88.19 L 376.00 88.42 L 377.00 88.43 L 378.00 88.37 L 379.00 88.35 L 380.00 88.44 L 381.00 88.44 L 382.00 88.39 L 383.00 88.44 L 384.00 88.46 L 385.00 88.46 L 386.00 88.46 L 387.00 88.46 L 388.00 71.59 L 389.00 80.07 L 390.00 80.64 L 391.00 87.00 L 392.00 86.70 L 393.00 87.46 L 394.00 87.71 L 395.00 88.10 L 396.00 87.77 L 397.00 88.01 L 398.00 88.01 L 399.00 88.00 L 400.00 88.12 L 401.00 88.25 L 402.00 88.20 L 403.00 88.30 L 404.00 88.18 L 405.00 88.30 L 406.00 88.32 L 407.00 88.32 L 408.00 88.31 L 409.00 88.30 L 410.00 88.36 L 411.00 88.36 L 412.00 88.35 L 413.00 88.27 L 414.00 85.16 L 415.00 82.26 L 416.00 82.51 L 417.00 87.92 L 418.00 88.11 L 419.00 88.15 L 420.00 87.98 L 421.00 88.20 L 422.00 88.15 L 423.00 88.27 L 424.00 88.25 L 425.00 88.36 L 426.00 88.22 L 427.00 88.40 L 428.00 88.41 L 429.00 88.36 L 430.00 88.34 L 431.00 88.43 L 432.00 88.43 L 433.00 88.44 L 434.00 88.46 L 435.00 88.44 L 436.00 88.47 L 437.00 88.47 L 438.00 88.47 L 439.00 68.92 L 440.00 41.03 L 441.00 46.93 L 442.00 60.00 L 443.00 64.42 L 444.00 68.57 L 445.00 76.20 L 446.00 78.37 L 447.00 78.14 L 448.00 80.00 L 449.00 82.71 L 450.00 85.17 L 451.00 85.41 L 452.00 86.56 L 453.00 85.60 L 454.00 85.95 L 455.00 85.50 L 456.00 85.90 L 457.00 86.69 L 458.00 86.74 L 459.00 86.92 L 460.00 87.33 L 461.00 87.00 L 462.00 87.06 L 463.00 87.73 L 464.00 87.90 L 465.00 86.83 L 466.00 84.60 L 467.00 81.86 L 468.00 86.88 L 469.00 87.12 L 470.00 87.57 L 471.00 87.55 L 472.00 87.85 L 473.00 87.84 L 474.00 87.88 L 475.00 87.88 L 476.00 87.78 L 477.00 88.13 L 478.00 88.24 L 479.00 88.19 L 480.00 88.01 L 481.00 88.19 L 482.00 88.08 L 483.00 88.15 L 484.00 88.12 L 485.00 88.24 L 486.00 88.20 L 487.00 88.13 L 488.00 88.20 L 489.00 88.30 L 490.00 88.26 L 491.00 56.65 L 492.00 57.16 L 493.00 58.44 L 494.00 67.57 L 495.00 80.60 L 496.00 66.03 L 497.00 72.92 L 498.00 84.94 L 499.00 70.65 L 500.00 75.96 L 501.00 82.87 L 502.00 78.93 L 503.00 81.08 L 504.00 82.26 L 505.00 83.16 L 506.00 82.35 L 507.00 83.19 L 508.00 84.02 L 509.00 83.94 L 510.00 84.29 L 511.00 84.68 L 512.00 84.75 L 513.00 85.37 L 514.00 85.41 L 515.00 86.11 L 516.00 72.59 L 517.00 78.11 L 518.00 78.31 L 519.00 82.29 L 520.00 84.83 L 521.00 85.70 L 522.00 86.26 L 523.00 86.53 L 524.00 86.33 L 525.00 86.66 L 526.00 86.74 L 527.00 86.38 L 528.00 86.97 L 529.00 86.75 L 530.00 87.12 L 531.00 87.73 L 532.00 87.34 L 533.00 87.20 L 534.00 88.03 L 535.00 87.83 L 536.00 87.81 L 537.00 88.03 L 538.00 87.85 L 539.00 87.96 L 540.00 87.93 L 541.00 88.10 L 542.00 59.60 L 543.00 42.41 L 544.00 59.65 L 545.00 70.69 L 546.00 62.37 L 547.00 65.27 L 548.00 77.47 L 549.00 71.66 L 550.00 72.28 L 551.00 75.97 L 552.00 73.88 L 553.00 76.35 L 554.00 81.07 L 555.00 79.12 L 556.00 81.86 L 557.00 83.09 L 558.00 83.35 L 559.00 82.72 L 560.00 83.98 L 561.00 85.52 L 562.00 84.24 L 563.00 84.65 L 564.00 85.59 L 565.00 85.08 L 566.00 85.35 L 567.00 85.73 L 568.00 85.18 L 569.00 82.52 L 570.00 84.18 L 571.00 86.17 L 572.00 86.03 L 573.00 86.45 L 574.00 87.22 L 575.00 86.63 L 576.00 86.94 L 577.00 87.07 L 578.00 87.50 L 579.00 87.09 L 580.00 87.34 L 581.00 87.92 L 582.00 87.45 L 583.00 87.59 L 584.00 88.03 L 585.00 87.78 L 586.00 87.76 L 587.00 87.98 L 588.00 87.76 L 589.00 87.81 L 590.00 88.33 L 591.00 87.97 L 592.00 88.12 L 593.00 68.54 L 594.00 79.52 L 595.00 80.27 L 596.00 83.29 L 597.00 86.29 L 598.00 87.48 L 599.00 87.36 L 600.00 87.75 L 601.00 87.75 L 602.00 88.04 L 603.00 87.88 L 604.00 88.08 L 605.00 88.08 L 606.00 88.19 L 607.00 88.08 L 608.00 88.07 L 609.00 88.15 L 610.00 88.13 L 611.00 88.09 L 612.00 88.25 L 613.00 88.17 L 614.00 88.26 L 615.00 88.27 L 616.00 88.31 L 617.00 88.29 L 618.00 88.26 L 619.00 87.01 L 620.00 83.99 L 621.00 82.10 L 622.00 87.01 L 623.00 87.99 L 624.00 88.13 L 625.00 87.99 L 626.00 88.11 L 627.00 88.26 L 628.00 88.16 L 629.00 88.27 L 630.00 88.31 L 631.00 88.22 L 632.00 88.31 L 633.00 88.42 L 634.00 88.41 L 635.00 88.32 L 636.00 88.41 L 637.00 88.43 L 638.00 88.43 L 639.00 88.45 L 640.00 88.46 L 641.00 88.45 L 642.00 88.46 L 643.00 88.47 L 644.00 88.33 L 645.00 58.41 L 646.00 57.55 L 647.00 58.11 L 648.00 67.90 L 649.00 82.11 L 650.00 66.91 L 651.00 73.02 L 652.00 84.98 L 653.00 71.61 L 654.00 77.27 L 655.00 84.14 L 656.00 78.51 L 657.00 82.11 L 658.00 82.92 L 659.00 83.77 L 660.00 82.76 L 661.00 83.52 L 662.00 85.31 L 663.00 84.46 L 664.00 85.47 L 665.00 85.83 L 666.00 85.31 L 667.00 86.01 L 668.00 86.03 L 669.00 86.55 L 670.00 69.25 L 671.00 80.31 L 672.00 81.05 L 673.00 81.74 L 674.00 85.82 L 675.00 86.22 L 676.00 86.89 L 677.00 86.57 L 678.00 86.48 L 679.00 87.08 L 680.00 86.79 L 681.00 87.06 L 682.00 87.77 L 683.00 87.29 L 684.00 87.62 L 685.00 87.58 L 686.00 87.44 L 687.00 87.47 L 688.00 87.78 L 689.00 87.96 L 690.00 87.87 L 691.00 87.84 L 692.00 88.09 L 693.00 87.95 L 694.00 88.04 L 695.00 88.26 L 695.00 89.07 L 694.00 89.05 L 693.00 88.86 L 692.00 88.99 L 691.00 89.10 L 690.00 88.99 L 689.00 89.33 L 688.00 89.34 L 687.00 89.20 L 686.00 89.25 L 685.00 89.39 L 684.00 89.62 L 683.00 89.37 L 682.00 89.61 L 681.00 89.97 L 680.00 89.39 L 679.00 90.16 L 678.00 90.44 L 677.00 89.40 L 676.00 90.55 L 675.00 90.88 L 674.00 91.48 L 673.00 92.76 L 672.00 97.29 L 671.00 98.39 L 670.00 108.32 L 669.00 90.75 L 668.00 91.11 L 667.00 90.98 L 666.00 91.43 L 665.00 91.58 L 664.00 91.28 L 663.00 92.24 L 662.00 92.84 L 661.00 90.89 L 660.00 93.81 L 659.00 94.71 L 658.00 93.46 L 657.00 95.05 L 656.00 96.45 L 655.00 99.25 L 654.00 94.05 L 653.00 102.82 L 652.00 103.65 L 651.00 101.67 L 650.00 104.91 L 649.00 106.42 L 648.00 112.87 L 647.00 114.44 L 646.00 110.88 L 645.00 129.69 L 644.00 96.88 L 643.00 88.55 L 642.00 88.55 L 641.00 88.56 L 640.00 88.54 L 639.00 88.54 L 638.00 88.58 L 637.00 88.58 L 636.00 88.60 L 635.00 88.68 L 634.00 88.58 L 633.00 88.59 L 632.00 88.64 L 631.00 88.71 L 630.00 88.70 L 629.00 88.70 L 628.00 88.81 L 627.00 88.87 L 626.00 88.97 L 625.00 88.97 L 624.00 88.83 L 623.00 89.12 L 622.00 89.54 L 621.00 95.44 L 620.00 92.99 L 619.00 89.54 L 618.00 88.74 L 617.00 88.70 L 616.00 88.73 L 615.00 88.74 L 614.00 88.75 L 613.00 88.79 L 612.00 88.75 L 611.00 88.78 L 610.00 88.83 L 609.00 88.86 L 608.00 88.81 L 607.00 88.99 L 606.00 88.86 L 605.00 89.06 L 604.00 88.90 L 603.00 89.04 L 602.00 89.08 L 601.00 89.11 L 600.00 89.30 L 599.00 89.63 L 598.00 89.55 L 597.00 89.95 L 596.00 92.81 L 595.00 97.09 L 594.00 99.75 L 593.00 114.45 L 592.00 88.85 L 591.00 88.96 L 590.00 89.09 L 589.00 89.20 L 588.00 89.22 L 587.00 89.28 L 586.00 89.07 L 585.00 89.26 L 584.00 89.28 L 583.00 89.57 L 582.00 89.08 L 581.00 89.53 L 580.00 90.08 L 579.00 89.37 L 578.00 90.12 L 577.00 89.74 L 576.00 90.31 L 575.00 89.92 L 574.00 90.48 L 573.00 91.03 L 572.00 89.58 L 571.00 91.12 L 570.00 97.61 L 569.00 93.86 L 568.00 92.39 L 567.00 91.14 L 566.00 90.30 L 565.00 91.86 L 564.00 92.30 L 563.00 91.13 L 562.00 92.20 L 561.00 93.11 L 560.00 91.39 L 559.00 93.19 L 558.00 93.99 L 557.00 94.45 L 556.00 92.86 L 555.00 96.53 L 554.00 99.27 L 553.00 93.72 L 552.00 101.79 L 551.00 105.94 L 550.00 98.97 L 549.00 105.60 L 548.00 107.70 L 547.00 103.24 L 546.00 112.61 L 545.00 110.26 L 544.00 116.57 L 543.00 115.01 L 542.00 113.27 L 541.00 89.04 L 540.00 89.08 L 539.00 89.01 L 538.00 89.00 L 537.00 89.29 L 536.00 89.13 L 535.00 89.06 L 534.00 89.56 L 533.00 89.59 L 532.00 89.22 L 531.00 89.86 L 530.00 89.85 L 529.00 89.34 L 528.00 90.23 L 527.00 90.73 L 526.00 89.62 L 525.00 90.24 L 524.00 90.99 L 523.00 90.84 L 522.00 89.88 L 521.00 91.59 L 520.00 91.30 L 519.00 92.49 L 518.00 97.83 L 517.00 100.50 L 516.00 106.42 L 515.00 90.95 L 514.00 91.25 L 513.00 90.53 L 512.00 92.13 L 511.00 92.11 L 510.00 91.66 L 509.00 92.83 L 508.00 93.35 L 507.00 92.21 L 506.00 94.57 L 505.00 95.49 L 504.00 94.33 L 503.00 95.65 L 502.00 96.74 L 501.00 99.36 L 500.00 93.80 L 499.00 102.78 L 498.00 104.03 L 497.00 101.43 L 496.00 105.85 L 495.00 107.10 L 494.00 112.84 L 493.00 114.60 L 492.00 110.70 L 491.00 130.12 L 490.00 97.45 L 489.00 88.73 L 488.00 88.80 L 487.00 88.82 L 486.00 88.79 L 485.00 88.85 L 484.00 88.87 L 483.00 88.89 L 482.00 88.82 L 481.00 88.86 L 480.00 88.98 L 479.00 88.75 L 478.00 88.88 L 477.00 88.83 L 476.00 89.18 L 475.00 89.27 L 474.00 89.25 L 473.00 89.15 L 472.00 89.17 L 471.00 89.59 L 470.00 89.44 L 469.00 90.03 L 468.00 89.95 L 467.00 95.84 L 466.00 93.22 L 465.00 89.85 L 464.00 88.96 L 463.00 89.47 L 462.00 89.05 L 461.00 89.75 L 460.00 90.31 L 459.00 89.79 L 458.00 90.22 L 457.00 90.92 L 456.00 90.35 L 455.00 91.36 L 454.00 91.81 L 453.00 92.07 L 452.00 91.61 L 451.00 90.74 L 450.00 92.94 L 449.00 94.40 L 448.00 94.14 L 447.00 101.97 L 446.00 98.78 L 445.00 101.74 L 444.00 109.22 L 443.00 114.00 L 442.00 118.75 L 441.00 127.80 L 440.00 136.30 L 439.00 104.28 L 438.00 88.53 L 437.00 88.53 L 436.00 88.55 L 435.00 88.55 L 434.00 88.54 L 433.00 88.59 L 432.00 88.57 L 431.00 88.55 L 430.00 88.69 L 429.00 88.60 L 428.00 88.56 L 427.00 88.62 L 426.00 88.73 L 425.00 88.66 L 424.00 88.70 L 423.00 88.73 L 422.00 88.80 L 421.00 88.97 L 420.00 88.93 L 419.00 88.83 L 418.00 89.11 L 417.00 89.16 L 416.00 95.45 L 415.00 94.51 L 414.00 90.56 L 413.00 88.78 L 412.00 88.65 L 411.00 88.66 L 410.00 88.65 L 409.00 88.68 L 408.00 88.70 L 407.00 88.69 L 406.00 88.68 L 405.00 88.72 L 404.00 88.77 L 403.00 88.69 L 402.00 88.80 L 401.00 88.82 L 400.00 88.83 L 399.00 88.96 L 398.00 88.99 L 397.00 88.96 L 396.00 89.18 L 395.00 89.01 L 394.00 89.40 L 393.00 89.73 L 392.00 90.05 L 391.00 90.08 L 390.00 96.31 L 389.00 96.80 L 388.00 104.80 L 387.00 88.54 L 386.00 88.55 L 385.00 88.54 L 384.00 88.55 L 383.00 88.55 L 382.00 88.57 L 381.00 88.59 L 380.00 88.57 L 379.00 88.74 L 378.00 88.65 L 377.00 88.58 L 376.00 88.60 L 375.00 88.69 L 374.00 88.61 L 373.00 88.71 L 372.00 88.74 L 371.00 88.86 L 370.00 88.99 L 369.00 88.89 L 368.00 88.86 L 367.00 88.84 L 366.00 89.21 L 365.00 92.12 L 364.00 95.52 L 363.00 92.62 L 362.00 89.17 L 361.00 88.75 L 360.00 88.64 L 359.00 88.75 L 358.00 88.65 L 357.00 88.73 L 356.00 88.83 L 355.00 88.80 L 354.00 88.78 L 353.00 88.76 L 352.00 88.77 L 351.00 88.82 L 350.00 88.85 L 349.00 88.96 L 348.00 89.01 L 347.00 88.99 L 346.00 89.01 L 345.00 88.95 L 344.00 89.05 L 343.00 89.39 L 342.00 89.66 L 341.00 89.97 L 340.00 90.66 L 339.00 97.00 L 338.00 97.27 L 337.00 102.65 L 336.00 113.80 L 335.00 88.83 L 334.00 88.95 L 333.00 89.12 L 332.00 89.26 L 331.00 89.04 L 330.00 89.17 L 329.00 89.18 L 328.00 89.12 L 327.00 89.49 L 326.00 89.21 L 325.00 89.19 L 324.00 89.27 L 323.00 89.87 L 322.00 89.26 L 321.00 90.28 L 320.00 89.82 L 319.00 89.78 L 318.00 90.87 L 317.00 90.72 L 316.00 91.34 L 315.00 91.42 L 314.00 92.68 L 313.00 98.31 L 312.00 96.86 L 311.00 105.86 L 310.00 91.35 L 309.00 90.55 L 308.00 91.84 L 307.00 91.84 L 306.00 91.42 L 305.00 91.60 L 304.00 92.15 L 303.00 92.46 L 302.00 92.48 L 301.00 93.55 L 300.00 94.20 L 299.00 94.53 L 298.00 94.93 L 297.00 96.14 L 296.00 99.22 L 295.00 97.60 L 294.00 102.62 L 293.00 103.23 L 292.00 101.55 L 291.00 104.45 L 290.00 106.03 L 289.00 106.43 L 288.00 114.10 L 287.00 111.03 L 286.00 129.74 L 285.00 105.35 L 284.00 88.79 L 283.00 88.78 L 282.00 88.85 L 281.00 88.82 L 280.00 88.86 L 279.00 88.84 L 278.00 88.81 L 277.00 88.79 L 276.00 88.77 L 275.00 88.69 L 274.00 88.75 L 273.00 88.89 L 272.00 88.75 L 271.00 89.01 L 270.00 89.07 L 269.00 89.00 L 268.00 89.14 L 267.00 89.31 L 266.00 89.03 L 265.00 89.27 L 264.00 89.81 L 263.00 89.80 L 262.00 95.50 L 261.00 95.03 L 260.00 90.77 L 259.00 89.64 L 258.00 89.89 L 257.00 89.47 L 256.00 89.74 L 255.00 89.29 L 254.00 89.46 L 253.00 89.81 L 252.00 89.51 L 251.00 89.38 L 250.00 90.11 L 249.00 90.58 L 248.00 90.83 L 247.00 90.34 L 246.00 90.74 L 245.00 91.16 L 244.00 92.89 L 243.00 93.50 L 242.00 95.29 L 241.00 97.55 L 240.00 96.72 L 239.00 102.19 L 238.00 104.52 L 237.00 114.63 L 236.00 119.73 L 235.00 124.86 L 234.00 132.95 L 233.00 88.54 L 232.00 88.54 L 231.00 88.55 L 230.00 88.54 L 229.00 88.56 L 228.00 88.56 L 227.00 88.57 L 226.00 88.57 L 225.00 88.71 L 224.00 88.59 L 223.00 88.62 L 222.00 88.59 L 221.00 88.69 L 220.00 88.64 L 219.00 88.71 L 218.00 88.72 L 217.00 88.83 L 216.00 89.01 L 215.00 88.91 L 214.00 88.83 L 213.00 88.86 L 212.00 89.10 L 211.00 92.10 L 210.00 95.49 L 209.00 92.63 L 208.00 89.08 L 207.00 88.66 L 206.00 88.67 L 205.00 88.82 L 204.00 88.75 L 203.00 88.77 L 202.00 88.77 L 201.00 88.83 L 200.00 88.83 L 199.00 88.87 L 198.00 88.87 L 197.00 88.79 L 196.00 88.92 L 195.00 89.06 L 194.00 88.90 L 193.00 88.92 L 192.00 89.11 L 191.00 88.99 L 190.00 89.43 L 189.00 89.27 L 188.00 89.66 L 187.00 90.12 L 186.00 90.71 L 185.00 96.40 L 184.00 97.64 L 183.00 101.97 L 182.00 114.19 L 181.00 89.18 L 180.00 88.76 L 179.00 89.10 L 178.00 89.41 L 177.00 88.88 L 176.00 89.24 L 175.00 89.18 L 174.00 89.17 L 173.00 89.67 L 172.00 89.61 L 171.00 89.33 L 170.00 89.50 L 169.00 89.91 L 168.00 89.97 L 167.00 90.24 L 166.00 90.12 L 165.00 90.72 L 164.00 90.66 L 163.00 90.72 L 162.00 91.75 L 161.00 92.44 L 160.00 92.75 L 159.00 99.02 L 158.00 97.89 L 157.00 105.17 L 156.00 90.69 L 155.00 91.70 L 154.00 90.56 L 153.00 92.13 L 152.00 92.97 L 151.00 90.75 L 150.00 94.25 L 149.00 94.57 L 148.00 93.82 L 147.00 93.59 L 146.00 94.56 L 145.00 96.76 L 144.00 93.23 L 143.00 100.57 L 142.00 102.19 L 141.00 93.93 L 140.00 106.43 L 139.00 104.86 L 138.00 94.56 L 137.00 108.59 L 136.00 113.61 L 135.00 104.55 L 134.00 110.58 L 133.00 116.89 L 132.00 113.40 L 131.00 108.43 L 130.00 88.54 L 129.00 88.54 L 128.00 88.53 L 127.00 88.53 L 126.00 88.55 L 125.00 88.56 L 124.00 88.56 L 123.00 88.55 L 122.00 88.65 L 121.00 88.60 L 120.00 88.60 L 119.00 88.61 L 118.00 88.69 L 117.00 88.65 L 116.00 88.67 L 115.00 88.75 L 114.00 88.77 L 113.00 88.91 L 112.00 88.83 L 111.00 88.77 L 110.00 89.08 L 109.00 89.04 L 108.00 94.63 L 107.00 93.89 L 106.00 90.33 L 105.00 88.81 L 104.00 88.61 L 103.00 88.66 L 102.00 88.68 L 101.00 88.66 L 100.00 88.62 L 99.00 88.68 L 98.00 88.73 L 97.00 88.69 L 96.00 88.78 L 95.00 88.72 L 94.00 88.79 L 93.00 88.83 L 92.00 88.85 L 91.00 88.84 L 90.00 88.97 L 89.00 88.86 L 88.00 89.02 L 87.00 89.02 L 86.00 89.49 L 85.00 89.60 L 84.00 89.91 L 83.00 90.04 L 82.00 96.14 L 81.00 96.65 L 80.00 103.93 Z" fill="var(--ink)" opacity="0.78"/>
  <path d="M 80.00 207.59 L 81.00 222.20 L 82.00 221.26 L 83.00 248.86 L 84.00 249.62 L 85.00 252.00 L 86.00 252.17 L 87.00 254.97 L 88.00 254.18 L 89.00 255.57 L 90.00 255.19 L 91.00 255.87 L 92.00 254.95 L 93.00 255.96 L 94.00 256.00 L 95.00 256.40 L 96.00 255.96 L 97.00 256.43 L 98.00 256.25 L 99.00 256.46 L 100.00 256.81 L 101.00 256.67 L 102.00 256.54 L 103.00 256.57 L 104.00 256.93 L 105.00 256.23 L 106.00 241.09 L 107.00 229.90 L 108.00 227.73 L 109.00 254.59 L 110.00 255.60 L 111.00 255.68 L 112.00 254.63 L 113.00 255.66 L 114.00 255.82 L 115.00 256.44 L 116.00 256.39 L 117.00 256.59 L 118.00 255.90 L 119.00 257.06 L 120.00 257.03 L 121.00 256.86 L 122.00 256.60 L 123.00 257.24 L 124.00 257.18 L 125.00 257.19 L 126.00 257.24 L 127.00 257.29 L 128.00 257.36 L 129.00 257.31 L 130.00 257.34 L 131.00 252.13 L 132.00 207.59 L 133.00 226.20 L 134.00 229.85 L 135.00 221.91 L 136.00 217.03 L 137.00 222.77 L 138.00 225.29 L 139.00 223.27 L 140.00 228.74 L 141.00 225.01 L 142.00 226.79 L 143.00 238.46 L 144.00 232.32 L 145.00 234.02 L 146.00 241.01 L 147.00 241.57 L 148.00 237.32 L 149.00 234.88 L 150.00 243.73 L 151.00 234.19 L 152.00 237.11 L 153.00 248.48 L 154.00 240.79 L 155.00 241.75 L 156.00 246.60 L 157.00 213.10 L 158.00 229.07 L 159.00 224.54 L 160.00 238.75 L 161.00 244.52 L 162.00 249.35 L 163.00 247.42 L 164.00 245.45 L 165.00 249.73 L 166.00 244.72 L 167.00 249.14 L 168.00 248.38 L 169.00 251.76 L 170.00 252.05 L 171.00 251.02 L 172.00 251.80 L 173.00 251.30 L 174.00 253.72 L 175.00 254.03 L 176.00 253.56 L 177.00 254.40 L 178.00 254.48 L 179.00 254.01 L 180.00 254.25 L 181.00 254.63 L 182.00 207.59 L 183.00 207.59 L 184.00 229.51 L 185.00 225.40 L 186.00 246.16 L 187.00 249.76 L 188.00 252.07 L 189.00 251.61 L 190.00 252.39 L 191.00 253.60 L 192.00 254.35 L 193.00 255.08 L 194.00 255.00 L 195.00 254.90 L 196.00 255.74 L 197.00 255.32 L 198.00 255.32 L 199.00 255.66 L 200.00 255.60 L 201.00 255.69 L 202.00 255.72 L 203.00 255.58 L 204.00 256.23 L 205.00 256.75 L 206.00 256.31 L 207.00 256.72 L 208.00 254.41 L 209.00 238.57 L 210.00 223.72 L 211.00 237.02 L 212.00 254.57 L 213.00 255.16 L 214.00 255.56 L 215.00 254.44 L 216.00 256.07 L 217.00 255.40 L 218.00 256.07 L 219.00 256.23 L 220.00 256.73 L 221.00 255.74 L 222.00 256.91 L 223.00 256.95 L 224.00 256.41 L 225.00 256.59 L 226.00 257.03 L 227.00 257.07 L 228.00 256.99 L 229.00 257.12 L 230.00 257.28 L 231.00 257.27 L 232.00 257.27 L 233.00 257.25 L 234.00 207.59 L 235.00 231.62 L 236.00 236.67 L 237.00 231.51 L 238.00 232.93 L 239.00 240.20 L 240.00 239.97 L 241.00 238.21 L 242.00 244.64 L 243.00 244.79 L 244.00 244.50 L 245.00 250.18 L 246.00 251.94 L 247.00 247.97 L 248.00 250.64 L 249.00 251.28 L 250.00 251.47 L 251.00 251.61 L 252.00 250.98 L 253.00 248.92 L 254.00 252.84 L 255.00 253.61 L 256.00 252.66 L 257.00 252.84 L 258.00 249.37 L 259.00 249.77 L 260.00 241.32 L 261.00 227.70 L 262.00 223.37 L 263.00 249.33 L 264.00 249.87 L 265.00 252.33 L 266.00 253.27 L 267.00 254.02 L 268.00 254.10 L 269.00 254.58 L 270.00 254.46 L 271.00 255.15 L 272.00 255.31 L 273.00 255.81 L 274.00 256.31 L 275.00 256.19 L 276.00 256.43 L 277.00 256.13 L 278.00 255.83 L 279.00 255.51 L 280.00 255.70 L 281.00 255.82 L 282.00 255.43 L 283.00 256.01 L 284.00 256.22 L 285.00 207.59 L 286.00 209.05 L 287.00 220.31 L 288.00 236.57 L 289.00 224.68 L 290.00 215.91 L 291.00 246.22 L 292.00 226.13 L 293.00 218.04 L 294.00 245.80 L 295.00 229.08 L 296.00 229.62 L 297.00 238.27 L 298.00 235.37 L 299.00 238.09 L 300.00 235.52 L 301.00 246.76 L 302.00 235.09 L 303.00 239.34 L 304.00 243.14 L 305.00 240.02 L 306.00 238.19 L 307.00 244.49 L 308.00 242.40 L 309.00 242.51 L 310.00 245.92 L 311.00 210.11 L 312.00 227.58 L 313.00 223.66 L 314.00 244.45 L 315.00 242.46 L 316.00 248.15 L 317.00 249.61 L 318.00 249.05 L 319.00 246.57 L 320.00 250.86 L 321.00 248.61 L 322.00 247.32 L 323.00 254.19 L 324.00 250.55 L 325.00 252.55 L 326.00 254.03 L 327.00 253.88 L 328.00 253.66 L 329.00 253.88 L 330.00 254.52 L 331.00 254.13 L 332.00 253.40 L 333.00 253.39 L 334.00 254.49 L 335.00 254.18 L 336.00 207.59 L 337.00 207.59 L 338.00 229.43 L 339.00 226.66 L 340.00 245.16 L 341.00 251.62 L 342.00 252.37 L 343.00 252.41 L 344.00 253.83 L 345.00 254.93 L 346.00 254.89 L 347.00 254.92 L 348.00 253.57 L 349.00 255.30 L 350.00 255.19 L 351.00 255.85 L 352.00 255.97 L 353.00 255.49 L 354.00 255.70 L 355.00 256.22 L 356.00 255.84 L 357.00 256.45 L 358.00 256.55 L 359.00 256.53 L 360.00 256.71 L 361.00 256.21 L 362.00 254.84 L 363.00 238.08 L 364.00 223.95 L 365.00 236.96 L 366.00 254.54 L 367.00 255.19 L 368.00 255.50 L 369.00 254.46 L 370.00 255.89 L 371.00 255.64 L 372.00 256.31 L 373.00 256.33 L 374.00 256.75 L 375.00 255.79 L 376.00 257.05 L 377.00 257.11 L 378.00 256.79 L 379.00 256.69 L 380.00 257.15 L 381.00 257.17 L 382.00 256.87 L 383.00 257.15 L 384.00 257.27 L 385.00 257.29 L 386.00 257.29 L 387.00 257.25 L 388.00 207.59 L 389.00 222.15 L 390.00 221.30 L 391.00 250.52 L 392.00 248.13 L 393.00 251.75 L 394.00 253.13 L 395.00 255.28 L 396.00 253.49 L 397.00 254.78 L 398.00 254.78 L 399.00 254.77 L 400.00 255.43 L 401.00 256.12 L 402.00 255.83 L 403.00 256.40 L 404.00 255.74 L 405.00 256.40 L 406.00 256.54 L 407.00 256.48 L 408.00 256.43 L 409.00 256.39 L 410.00 256.71 L 411.00 256.72 L 412.00 256.70 L 413.00 256.24 L 414.00 239.11 L 415.00 228.24 L 416.00 224.58 L 417.00 254.31 L 418.00 255.33 L 419.00 255.59 L 420.00 254.62 L 421.00 255.84 L 422.00 255.60 L 423.00 256.23 L 424.00 256.12 L 425.00 256.71 L 426.00 255.96 L 427.00 256.97 L 428.00 257.02 L 429.00 256.71 L 430.00 256.60 L 431.00 257.11 L 432.00 257.12 L 433.00 257.18 L 434.00 257.26 L 435.00 257.17 L 436.00 257.31 L 437.00 257.32 L 438.00 257.34 L 439.00 207.59 L 440.00 207.59 L 441.00 227.11 L 442.00 232.40 L 443.00 235.11 L 444.00 233.82 L 445.00 237.29 L 446.00 239.11 L 447.00 238.24 L 448.00 240.04 L 449.00 244.34 L 450.00 249.71 L 451.00 249.19 L 452.00 251.71 L 453.00 248.54 L 454.00 248.51 L 455.00 245.72 L 456.00 246.13 L 457.00 249.35 L 458.00 248.50 L 459.00 248.77 L 460.00 251.06 L 461.00 249.24 L 462.00 249.58 L 463.00 253.25 L 464.00 254.20 L 465.00 248.30 L 466.00 236.07 L 467.00 221.01 L 468.00 248.59 L 469.00 249.92 L 470.00 252.39 L 471.00 252.28 L 472.00 253.91 L 473.00 253.89 L 474.00 254.11 L 475.00 254.07 L 476.00 253.55 L 477.00 255.48 L 478.00 256.08 L 479.00 255.78 L 480.00 254.82 L 481.00 255.81 L 482.00 255.21 L 483.00 255.60 L 484.00 255.43 L 485.00 256.08 L 486.00 255.84 L 487.00 255.47 L 488.00 255.87 L 489.00 256.39 L 490.00 256.19 L 491.00 207.59 L 492.00 222.98 L 493.00 220.97 L 494.00 225.41 L 495.00 244.25 L 496.00 214.63 L 497.00 225.08 L 498.00 249.50 L 499.00 217.04 L 500.00 226.49 L 501.00 242.40 L 502.00 231.41 L 503.00 235.16 L 504.00 237.41 L 505.00 239.67 L 506.00 235.39 L 507.00 236.30 L 508.00 237.63 L 509.00 237.22 L 510.00 236.85 L 511.00 236.55 L 512.00 236.96 L 513.00 240.31 L 514.00 240.51 L 515.00 244.35 L 516.00 211.78 L 517.00 229.42 L 518.00 225.07 L 519.00 235.93 L 520.00 243.18 L 521.00 246.02 L 522.00 247.10 L 523.00 247.38 L 524.00 245.53 L 525.00 247.34 L 526.00 247.85 L 527.00 245.86 L 528.00 249.06 L 529.00 247.90 L 530.00 249.92 L 531.00 253.28 L 532.00 251.12 L 533.00 250.35 L 534.00 254.89 L 535.00 253.82 L 536.00 253.72 L 537.00 254.92 L 538.00 253.91 L 539.00 254.54 L 540.00 254.35 L 541.00 255.29 L 542.00 207.59 L 543.00 210.45 L 544.00 227.05 L 545.00 237.40 L 546.00 222.08 L 547.00 218.27 L 548.00 237.31 L 549.00 226.53 L 550.00 224.82 L 551.00 230.05 L 552.00 225.43 L 553.00 228.23 L 554.00 237.82 L 555.00 232.59 L 556.00 238.01 L 557.00 240.46 L 558.00 240.74 L 559.00 237.23 L 560.00 239.77 L 561.00 244.44 L 562.00 238.74 L 563.00 238.51 L 564.00 241.50 L 565.00 238.66 L 566.00 240.16 L 567.00 242.26 L 568.00 239.26 L 569.00 227.43 L 570.00 233.67 L 571.00 244.70 L 572.00 243.89 L 573.00 246.24 L 574.00 250.47 L 575.00 247.21 L 576.00 248.90 L 577.00 249.65 L 578.00 252.00 L 579.00 249.77 L 580.00 251.14 L 581.00 254.33 L 582.00 251.72 L 583.00 252.48 L 584.00 254.89 L 585.00 253.55 L 586.00 253.42 L 587.00 254.66 L 588.00 253.41 L 589.00 253.69 L 590.00 256.54 L 591.00 254.60 L 592.00 255.38 L 593.00 207.59 L 594.00 227.87 L 595.00 224.66 L 596.00 234.97 L 597.00 246.96 L 598.00 251.85 L 599.00 251.24 L 600.00 253.38 L 601.00 253.36 L 602.00 254.96 L 603.00 254.09 L 604.00 255.18 L 605.00 255.21 L 606.00 255.78 L 607.00 255.19 L 608.00 255.13 L 609.00 255.54 L 610.00 255.49 L 611.00 255.22 L 612.00 256.10 L 613.00 255.68 L 614.00 256.19 L 615.00 256.22 L 616.00 256.44 L 617.00 256.37 L 618.00 256.19 L 619.00 249.30 L 620.00 232.67 L 621.00 224.51 L 622.00 249.32 L 623.00 254.68 L 624.00 255.45 L 625.00 254.68 L 626.00 255.37 L 627.00 256.19 L 628.00 255.63 L 629.00 256.23 L 630.00 256.46 L 631.00 255.97 L 632.00 256.43 L 633.00 257.04 L 634.00 256.98 L 635.00 256.50 L 636.00 257.02 L 637.00 257.13 L 638.00 257.11 L 639.00 257.19 L 640.00 257.26 L 641.00 257.25 L 642.00 257.25 L 643.00 257.32 L 644.00 256.58 L 645.00 207.59 L 646.00 222.38 L 647.00 220.21 L 648.00 225.84 L 649.00 246.70 L 650.00 215.64 L 651.00 224.90 L 652.00 249.57 L 653.00 218.51 L 654.00 229.20 L 655.00 245.80 L 656.00 229.75 L 657.00 237.93 L 658.00 239.19 L 659.00 241.42 L 660.00 236.51 L 661.00 237.14 L 662.00 242.97 L 663.00 238.98 L 664.00 241.73 L 665.00 242.84 L 666.00 239.87 L 667.00 243.83 L 668.00 243.92 L 669.00 246.78 L 670.00 207.59 L 671.00 224.48 L 672.00 227.38 L 673.00 227.89 L 674.00 244.34 L 675.00 244.89 L 676.00 248.61 L 677.00 246.88 L 678.00 246.41 L 679.00 249.68 L 680.00 248.11 L 681.00 249.57 L 682.00 253.46 L 683.00 250.82 L 684.00 252.63 L 685.00 252.44 L 686.00 251.68 L 687.00 251.86 L 688.00 253.52 L 689.00 254.53 L 690.00 254.06 L 691.00 253.84 L 692.00 255.26 L 693.00 254.47 L 694.00 254.95 L 695.00 256.20 L 695.00 260.64 L 694.00 260.54 L 693.00 259.50 L 692.00 260.20 L 691.00 260.80 L 690.00 260.22 L 689.00 262.06 L 688.00 262.10 L 687.00 261.34 L 686.00 261.62 L 685.00 262.40 L 684.00 263.67 L 683.00 262.30 L 682.00 263.58 L 681.00 265.59 L 680.00 262.42 L 679.00 266.62 L 678.00 268.19 L 677.00 262.45 L 676.00 268.80 L 675.00 270.30 L 674.00 271.92 L 673.00 277.19 L 672.00 294.68 L 671.00 293.51 L 670.00 307.41 L 669.00 269.87 L 668.00 271.85 L 667.00 271.13 L 666.00 273.66 L 665.00 274.29 L 664.00 272.20 L 663.00 275.57 L 662.00 276.29 L 661.00 267.11 L 660.00 278.04 L 659.00 278.99 L 658.00 273.50 L 657.00 277.88 L 656.00 280.69 L 655.00 285.94 L 654.00 271.67 L 653.00 291.99 L 652.00 291.02 L 651.00 283.97 L 650.00 290.47 L 649.00 288.60 L 648.00 290.22 L 647.00 292.67 L 646.00 283.12 L 645.00 307.41 L 644.00 301.29 L 643.00 257.81 L 642.00 257.76 L 641.00 257.82 L 640.00 257.71 L 639.00 257.75 L 638.00 257.94 L 637.00 257.93 L 636.00 258.07 L 635.00 258.49 L 634.00 257.92 L 633.00 258.02 L 632.00 258.29 L 631.00 258.64 L 630.00 258.62 L 629.00 258.59 L 628.00 259.21 L 627.00 259.54 L 626.00 260.11 L 625.00 260.11 L 624.00 259.30 L 623.00 260.91 L 622.00 263.21 L 621.00 288.79 L 620.00 282.17 L 619.00 263.24 L 618.00 258.82 L 617.00 258.63 L 616.00 258.76 L 615.00 258.81 L 614.00 258.89 L 613.00 259.11 L 612.00 258.90 L 611.00 259.03 L 610.00 259.31 L 609.00 259.50 L 608.00 259.18 L 607.00 260.17 L 606.00 259.46 L 605.00 260.57 L 604.00 259.70 L 603.00 260.50 L 602.00 260.69 L 601.00 260.85 L 600.00 261.93 L 599.00 263.73 L 598.00 263.15 L 597.00 265.15 L 596.00 276.01 L 595.00 292.04 L 594.00 294.18 L 593.00 307.41 L 592.00 259.44 L 591.00 260.00 L 590.00 260.72 L 589.00 261.36 L 588.00 261.48 L 587.00 261.81 L 586.00 260.63 L 585.00 261.69 L 584.00 261.81 L 583.00 263.40 L 582.00 260.69 L 581.00 263.20 L 580.00 266.19 L 579.00 262.31 L 578.00 266.39 L 577.00 264.33 L 576.00 267.43 L 575.00 265.32 L 574.00 268.41 L 573.00 271.41 L 572.00 263.45 L 571.00 271.93 L 570.00 294.29 L 569.00 286.96 L 568.00 278.90 L 567.00 272.02 L 566.00 267.42 L 565.00 276.05 L 564.00 277.72 L 563.00 270.09 L 562.00 274.75 L 561.00 276.56 L 560.00 268.57 L 559.00 274.85 L 558.00 275.73 L 557.00 275.92 L 556.00 270.73 L 555.00 279.92 L 554.00 284.73 L 553.00 270.46 L 552.00 288.02 L 551.00 294.15 L 550.00 277.67 L 549.00 290.30 L 548.00 291.28 L 547.00 279.69 L 546.00 293.73 L 545.00 284.11 L 544.00 285.69 L 543.00 301.36 L 542.00 307.41 L 541.00 260.49 L 540.00 260.70 L 539.00 260.32 L 538.00 260.25 L 537.00 261.83 L 536.00 260.98 L 535.00 260.60 L 534.00 263.35 L 533.00 263.48 L 532.00 261.46 L 531.00 264.99 L 530.00 264.92 L 529.00 262.11 L 528.00 267.04 L 527.00 269.76 L 526.00 263.65 L 525.00 267.08 L 524.00 271.12 L 523.00 269.14 L 522.00 264.06 L 521.00 270.97 L 520.00 268.31 L 519.00 272.28 L 518.00 286.54 L 517.00 287.97 L 516.00 298.42 L 515.00 270.99 L 514.00 272.60 L 513.00 268.65 L 512.00 277.52 L 511.00 276.48 L 510.00 273.50 L 509.00 277.85 L 508.00 277.97 L 507.00 272.05 L 506.00 280.54 L 505.00 281.23 L 504.00 275.96 L 503.00 279.34 L 502.00 281.11 L 501.00 285.69 L 500.00 270.82 L 499.00 291.18 L 498.00 291.45 L 497.00 283.19 L 496.00 291.93 L 495.00 289.56 L 494.00 290.07 L 493.00 292.70 L 492.00 283.04 L 491.00 307.41 L 490.00 302.69 L 489.00 258.78 L 488.00 259.13 L 487.00 259.28 L 486.00 259.11 L 485.00 259.40 L 484.00 259.52 L 483.00 259.66 L 482.00 259.29 L 481.00 259.49 L 480.00 260.13 L 479.00 258.86 L 478.00 259.60 L 477.00 259.33 L 476.00 261.26 L 475.00 261.72 L 474.00 261.62 L 473.00 261.10 L 472.00 261.16 L 471.00 263.49 L 470.00 262.66 L 469.00 265.91 L 468.00 265.47 L 467.00 291.24 L 466.00 283.45 L 465.00 264.94 L 464.00 260.04 L 463.00 262.83 L 462.00 260.55 L 461.00 264.35 L 460.00 267.50 L 459.00 264.63 L 458.00 266.43 L 457.00 268.23 L 456.00 265.53 L 455.00 268.24 L 454.00 268.66 L 453.00 268.65 L 452.00 266.92 L 451.00 263.61 L 450.00 268.00 L 449.00 271.08 L 448.00 268.95 L 447.00 282.24 L 446.00 274.68 L 445.00 278.81 L 444.00 282.77 L 443.00 281.75 L 442.00 281.02 L 441.00 286.65 L 440.00 307.41 L 439.00 307.41 L 438.00 257.68 L 437.00 257.65 L 436.00 257.76 L 435.00 257.76 L 434.00 257.70 L 433.00 257.99 L 432.00 257.90 L 431.00 257.81 L 430.00 258.57 L 429.00 258.07 L 428.00 257.86 L 427.00 258.14 L 426.00 258.79 L 425.00 258.37 L 424.00 258.63 L 423.00 258.77 L 422.00 259.17 L 421.00 260.06 L 420.00 259.87 L 419.00 259.31 L 418.00 260.83 L 417.00 261.12 L 416.00 287.97 L 415.00 288.58 L 414.00 268.83 L 413.00 259.05 L 412.00 258.32 L 411.00 258.38 L 410.00 258.34 L 409.00 258.50 L 408.00 258.60 L 407.00 258.54 L 406.00 258.48 L 405.00 258.73 L 404.00 259.01 L 403.00 258.53 L 402.00 259.17 L 401.00 259.23 L 400.00 259.34 L 399.00 260.01 L 398.00 260.20 L 397.00 260.04 L 396.00 261.25 L 395.00 260.34 L 394.00 262.44 L 393.00 264.26 L 392.00 265.57 L 391.00 264.92 L 390.00 287.20 L 389.00 290.81 L 388.00 307.41 L 387.00 257.70 L 386.00 257.75 L 385.00 257.74 L 384.00 257.76 L 383.00 257.80 L 382.00 257.89 L 381.00 257.98 L 380.00 257.87 L 379.00 258.81 L 378.00 258.31 L 377.00 257.97 L 376.00 258.04 L 375.00 258.52 L 374.00 258.11 L 373.00 258.66 L 372.00 258.80 L 371.00 259.47 L 370.00 260.21 L 369.00 259.65 L 368.00 259.48 L 367.00 259.40 L 366.00 261.40 L 365.00 277.40 L 364.00 289.07 L 363.00 280.16 L 362.00 261.20 L 361.00 258.87 L 360.00 258.26 L 359.00 258.87 L 358.00 258.32 L 357.00 258.76 L 356.00 259.31 L 355.00 259.13 L 354.00 259.02 L 353.00 258.92 L 352.00 259.01 L 351.00 259.24 L 350.00 259.42 L 349.00 260.04 L 348.00 260.28 L 347.00 260.19 L 346.00 260.31 L 345.00 259.98 L 344.00 260.55 L 343.00 262.39 L 342.00 263.84 L 341.00 265.05 L 340.00 267.29 L 339.00 288.53 L 338.00 292.35 L 337.00 304.50 L 336.00 307.41 L 335.00 259.30 L 334.00 259.95 L 333.00 260.92 L 332.00 261.68 L 331.00 260.47 L 330.00 261.21 L 329.00 261.23 L 328.00 260.93 L 327.00 262.96 L 326.00 261.40 L 325.00 261.31 L 324.00 261.76 L 323.00 265.01 L 322.00 261.67 L 321.00 267.28 L 320.00 264.77 L 319.00 264.55 L 318.00 270.49 L 317.00 268.62 L 316.00 269.92 L 315.00 269.62 L 314.00 272.96 L 313.00 287.70 L 312.00 279.13 L 311.00 297.62 L 310.00 273.20 L 309.00 268.79 L 308.00 275.88 L 307.00 275.89 L 306.00 273.34 L 305.00 274.21 L 304.00 275.04 L 303.00 274.63 L 302.00 274.66 L 301.00 277.08 L 300.00 277.26 L 299.00 278.36 L 298.00 277.50 L 297.00 279.80 L 296.00 285.82 L 295.00 281.53 L 294.00 291.38 L 293.00 290.08 L 292.00 286.35 L 291.00 289.55 L 290.00 287.90 L 289.00 288.57 L 288.00 292.35 L 287.00 283.14 L 286.00 307.41 L 285.00 307.41 L 284.00 259.07 L 283.00 259.06 L 282.00 259.46 L 281.00 259.28 L 280.00 259.48 L 279.00 259.38 L 278.00 259.21 L 277.00 259.11 L 276.00 258.97 L 275.00 258.52 L 274.00 258.88 L 273.00 259.65 L 272.00 258.89 L 271.00 260.33 L 270.00 260.64 L 269.00 260.23 L 268.00 261.03 L 267.00 261.98 L 266.00 260.41 L 265.00 261.75 L 264.00 264.72 L 263.00 264.64 L 262.00 290.52 L 261.00 289.45 L 260.00 269.97 L 259.00 263.75 L 258.00 265.13 L 257.00 262.86 L 256.00 264.31 L 255.00 261.87 L 254.00 262.81 L 253.00 264.73 L 252.00 263.00 L 251.00 261.88 L 250.00 264.68 L 249.00 265.54 L 248.00 266.26 L 247.00 263.47 L 246.00 264.00 L 245.00 265.01 L 244.00 268.23 L 243.00 268.98 L 242.00 272.44 L 241.00 274.61 L 240.00 271.91 L 239.00 280.54 L 238.00 277.99 L 237.00 282.13 L 236.00 282.61 L 235.00 284.11 L 234.00 307.41 L 233.00 257.73 L 232.00 257.72 L 231.00 257.78 L 230.00 257.72 L 229.00 257.86 L 228.00 257.83 L 227.00 257.90 L 226.00 257.87 L 225.00 258.65 L 224.00 257.99 L 223.00 258.16 L 222.00 258.02 L 221.00 258.53 L 220.00 258.26 L 219.00 258.67 L 218.00 258.72 L 217.00 259.30 L 216.00 260.32 L 215.00 259.75 L 214.00 259.34 L 213.00 259.50 L 212.00 260.78 L 211.00 277.29 L 210.00 288.95 L 209.00 280.20 L 208.00 260.70 L 207.00 258.40 L 206.00 258.45 L 205.00 259.27 L 204.00 258.88 L 203.00 258.96 L 202.00 258.98 L 201.00 259.34 L 200.00 259.31 L 199.00 259.54 L 198.00 259.53 L 197.00 259.09 L 196.00 259.79 L 195.00 260.57 L 194.00 259.73 L 193.00 259.81 L 192.00 260.87 L 191.00 260.17 L 190.00 262.64 L 189.00 261.76 L 188.00 263.89 L 187.00 265.95 L 186.00 267.80 L 185.00 287.40 L 184.00 293.90 L 183.00 303.10 L 182.00 307.41 L 181.00 261.26 L 180.00 258.95 L 179.00 260.81 L 178.00 262.51 L 177.00 259.57 L 176.00 261.56 L 175.00 261.23 L 174.00 261.19 L 173.00 263.96 L 172.00 263.63 L 171.00 262.07 L 170.00 262.98 L 169.00 265.25 L 168.00 265.56 L 167.00 267.09 L 166.00 266.40 L 165.00 269.73 L 164.00 268.13 L 163.00 268.31 L 162.00 271.40 L 161.00 272.40 L 160.00 273.56 L 159.00 287.13 L 158.00 281.44 L 157.00 298.17 L 156.00 269.53 L 155.00 275.19 L 154.00 268.59 L 153.00 276.52 L 152.00 278.06 L 151.00 267.00 L 150.00 281.04 L 149.00 279.80 L 148.00 275.65 L 147.00 274.32 L 146.00 276.20 L 145.00 280.49 L 144.00 270.43 L 143.00 287.95 L 142.00 288.84 L 141.00 269.86 L 140.00 295.12 L 139.00 288.81 L 138.00 268.37 L 137.00 292.72 L 136.00 295.08 L 135.00 278.16 L 134.00 284.45 L 133.00 286.35 L 132.00 306.52 L 131.00 307.41 L 130.00 257.72 L 129.00 257.70 L 128.00 257.66 L 127.00 257.68 L 126.00 257.76 L 125.00 257.82 L 124.00 257.85 L 123.00 257.78 L 122.00 258.34 L 121.00 258.05 L 120.00 258.03 L 119.00 258.12 L 118.00 258.56 L 117.00 258.34 L 116.00 258.46 L 115.00 258.87 L 114.00 259.01 L 113.00 259.78 L 112.00 259.34 L 111.00 258.99 L 110.00 260.69 L 109.00 260.46 L 108.00 284.46 L 107.00 287.12 L 106.00 267.55 L 105.00 259.19 L 104.00 258.13 L 103.00 258.36 L 102.00 258.52 L 101.00 258.37 L 100.00 258.14 L 99.00 258.51 L 98.00 258.76 L 97.00 258.53 L 96.00 259.03 L 95.00 258.69 L 94.00 259.09 L 93.00 259.31 L 92.00 259.42 L 91.00 259.40 L 90.00 260.10 L 89.00 259.51 L 88.00 260.35 L 87.00 260.35 L 86.00 262.92 L 85.00 263.60 L 84.00 265.16 L 83.00 265.08 L 82.00 288.02 L 81.00 292.09 L 80.00 307.41 Z" fill="var(--ink)" opacity="0.78"/>

  <!-- Ceiling annotation: place INSIDE the plot area, just above the ceiling line, right-aligned -->
  <text x="690" y="34.59"
        font-family="DM Mono, monospace" font-size="10" fill="var(--accent)" text-anchor="end">−3 dBFS ceiling</text>
  <text x="690" y="203.59"
        font-family="DM Mono, monospace" font-size="10" fill="var(--accent)" text-anchor="end">−3 dBFS ceiling</text>

  <!-- Time axis (single label centered under bottom panel) -->
  <text x="388.00" y="352"
        font-family="DM Mono, monospace" font-size="10" fill="var(--ink-soft)" text-anchor="middle">6 seconds →</text>
</svg>
